<?xml version="1.0" encoding="UTF-8" standalone="no"?><!DOCTYPE svg PUBLIC "-//W3C//DTD SVG 1.1//EN" "http://www.w3.org/Graphics/SVG/1.1/DTD/svg11.dtd"><svg width="100%" height="100%" viewBox="0 0 236 62" version="1.1" xmlns="http://www.w3.org/2000/svg" xmlns:xlink="http://www.w3.org/1999/xlink" xml:space="preserve" xmlns:serif="http://www.serif.com/" style="fill-rule:evenodd;clip-rule:evenodd;stroke-linejoin:round;stroke-miterlimit:1.41421;"><rect x="86.671" y="27.827" width="2.255" height="7.337"/><path d="M100.488,27.828l0,7.337l-3.553,0l-4.411,-5.511l0,5.511l-2.112,0l0,-7.337l3.553,0l4.411,5.5l0,-5.5l2.112,0Z" style="fill-rule:nonzero;"/><path d="M107.032,29.665l0,5.5l-2.255,0l0,-5.5l-3.289,0l0,-1.837l8.778,0l0,1.837l-3.234,0Z" style="fill-rule:nonzero;"/><path d="M111.124,35.164l0,-7.337l8.184,0l0,1.65l-5.973,0l0,1.276l5.577,0l0,1.452l-5.577,0l0,1.309l5.973,0l0,1.65l-8.184,0Z" style="fill-rule:nonzero;"/><path d="M122.982,31.491l3.354,0c0.059,0 0.107,0.002 0.144,0.005c0.036,0.004 0.084,0.006 0.143,0.006c0.264,0 0.471,-0.015 0.622,-0.044c0.15,-0.029 0.263,-0.083 0.341,-0.16c0.077,-0.077 0.125,-0.181 0.142,-0.313c0.019,-0.132 0.028,-0.301 0.028,-0.506c0,-0.198 -0.02,-0.354 -0.06,-0.467c-0.041,-0.114 -0.109,-0.202 -0.204,-0.265c-0.095,-0.062 -0.224,-0.1 -0.385,-0.115c-0.161,-0.015 -0.363,-0.022 -0.605,-0.022l-3.52,0l0,1.881Zm0,1.782l0,1.892l-2.255,0l0,-7.337l6.82,0c0.455,0 0.837,0.042 1.15,0.126c0.311,0.085 0.564,0.219 0.759,0.402c0.194,0.183 0.333,0.422 0.418,0.715c0.084,0.293 0.126,0.652 0.126,1.078c0,0.44 -0.035,0.788 -0.105,1.045c-0.069,0.256 -0.172,0.458 -0.308,0.605c-0.135,0.147 -0.302,0.256 -0.501,0.33c-0.197,0.073 -0.42,0.147 -0.67,0.22c0.206,0.044 0.4,0.082 0.583,0.115c0.183,0.033 0.342,0.098 0.478,0.193c0.136,0.095 0.242,0.233 0.319,0.412c0.078,0.18 0.116,0.439 0.116,0.776l0,1.32l-2.255,0l0,-0.968c0,-0.315 -0.065,-0.548 -0.193,-0.699c-0.128,-0.15 -0.386,-0.225 -0.775,-0.225l-3.707,0Z" style="fill-rule:nonzero;"/><path d="M133.598,31.491l3.354,0c0.059,0 0.107,0.002 0.144,0.005c0.036,0.004 0.084,0.006 0.143,0.006c0.264,0 0.471,-0.015 0.622,-0.044c0.15,-0.029 0.263,-0.083 0.341,-0.16c0.077,-0.077 0.125,-0.181 0.142,-0.313c0.019,-0.132 0.028,-0.301 0.028,-0.506c0,-0.198 -0.02,-0.354 -0.06,-0.467c-0.041,-0.114 -0.109,-0.202 -0.204,-0.265c-0.095,-0.062 -0.224,-0.1 -0.385,-0.115c-0.161,-0.015 -0.363,-0.022 -0.605,-0.022l-3.52,0l0,1.881Zm0,1.782l0,1.892l-2.255,0l0,-7.337l6.82,0c0.455,0 0.837,0.042 1.15,0.126c0.311,0.085 0.564,0.219 0.759,0.402c0.194,0.183 0.333,0.422 0.418,0.715c0.084,0.293 0.126,0.652 0.126,1.078c0,0.44 -0.035,0.788 -0.105,1.045c-0.069,0.256 -0.172,0.458 -0.308,0.605c-0.135,0.147 -0.302,0.256 -0.501,0.33c-0.197,0.073 -0.42,0.147 -0.67,0.22c0.206,0.044 0.4,0.082 0.583,0.115c0.183,0.033 0.342,0.098 0.478,0.193c0.136,0.095 0.242,0.233 0.319,0.412c0.078,0.18 0.116,0.439 0.116,0.776l0,1.32l-2.255,0l0,-0.968c0,-0.315 -0.065,-0.548 -0.193,-0.699c-0.128,-0.15 -0.386,-0.225 -0.775,-0.225l-3.707,0Z" style="fill-rule:nonzero;"/><path d="M141.792,35.164l0,-7.337l8.184,0l0,1.65l-5.973,0l0,1.276l5.577,0l0,1.452l-5.577,0l0,1.309l5.973,0l0,1.65l-8.184,0Z" style="fill-rule:nonzero;"/><path d="M155.618,32.414l0,-1.397l5.027,0c-0.006,0.565 -0.012,1.06 -0.016,1.485c-0.004,0.425 -0.026,0.794 -0.066,1.105c-0.041,0.312 -0.116,0.573 -0.225,0.782c-0.111,0.209 -0.274,0.377 -0.491,0.505c-0.215,0.129 -0.501,0.219 -0.857,0.27c-0.355,0.051 -0.802,0.077 -1.337,0.077c-0.234,0 -0.471,-0.002 -0.709,-0.006c-0.238,-0.003 -0.472,-0.005 -0.698,-0.005l-0.683,0c-0.813,0 -1.505,-0.022 -2.073,-0.066c-0.568,-0.044 -1.032,-0.168 -1.392,-0.374c-0.359,-0.205 -0.62,-0.517 -0.781,-0.935c-0.161,-0.418 -0.242,-1.001 -0.242,-1.749c0,-0.227 0.008,-0.533 0.022,-0.919c0.015,-0.384 0.037,-0.845 0.067,-1.38c0.007,-0.235 0.058,-0.462 0.153,-0.682c0.096,-0.22 0.219,-0.414 0.369,-0.583c0.15,-0.169 0.323,-0.31 0.517,-0.423c0.194,-0.114 0.401,-0.185 0.621,-0.215c0.44,-0.059 0.881,-0.099 1.32,-0.121c0.441,-0.022 0.88,-0.033 1.321,-0.033l1.6,0c0.473,0 0.893,0.015 1.259,0.044c0.367,0.029 0.683,0.079 0.946,0.148c0.264,0.07 0.485,0.175 0.66,0.314c0.169,0.132 0.301,0.271 0.396,0.418c0.096,0.147 0.165,0.304 0.209,0.473c0.045,0.169 0.072,0.352 0.083,0.55c0.011,0.198 0.017,0.411 0.017,0.638l-2.19,0c-0.014,-0.191 -0.044,-0.339 -0.088,-0.445c-0.044,-0.107 -0.123,-0.187 -0.236,-0.243c-0.113,-0.054 -0.272,-0.089 -0.473,-0.104c-0.202,-0.015 -0.461,-0.022 -0.775,-0.022l-0.562,0c-0.198,0 -0.392,-0.002 -0.583,-0.005c-0.19,-0.004 -0.366,-0.006 -0.528,-0.006c-0.366,0 -0.669,0.006 -0.907,0.016c-0.238,0.012 -0.431,0.068 -0.577,0.171c-0.147,0.103 -0.25,0.27 -0.309,0.501c-0.059,0.231 -0.088,0.566 -0.088,1.006c0,0.403 0.01,0.741 0.028,1.012c0.018,0.271 0.06,0.491 0.126,0.66c0.067,0.169 0.166,0.295 0.297,0.379c0.132,0.085 0.31,0.145 0.534,0.182c0.223,0.037 0.502,0.055 0.835,0.055l2.14,0c0.265,0 0.485,-0.026 0.66,-0.077c0.176,-0.051 0.307,-0.138 0.391,-0.258c0.084,-0.121 0.127,-0.303 0.127,-0.545c0,-0.044 -0.002,-0.077 -0.006,-0.099c-0.004,-0.022 -0.006,-0.055 -0.006,-0.099l-2.827,0Z" style="fill-rule:nonzero;"/><path d="M174.814,27.828l-4.092,7.337l-2.849,0l-3.872,-7.337l2.453,0l2.871,5.533l3.003,-5.533l2.486,0Z" style="fill-rule:nonzero;"/><rect x="174.648" y="31.578" width="5.104" height="1.87"/><path d="M187.783,32.315l-1.562,-2.904l-1.584,2.904l3.146,0Zm0.813,1.518l-4.74,0l-0.726,1.331l-2.487,0l4.093,-7.337l3.014,0l4.004,7.337l-2.464,0l-0.694,-1.331Z" style="fill-rule:nonzero;"/><path d="M86.605,46.24l0,0.176c0,0.652 0.136,0.909 0.555,1.046c0.378,0.124 1.125,0.186 2.26,0.186c2.524,0 2.99,-0.194 2.99,-1.27c0,-0.543 -0.166,-0.79 -0.602,-0.914c-0.428,-0.119 -0.456,-0.119 -3.359,-0.137c-1.173,-0.01 -1.677,-0.096 -2.076,-0.358c-0.389,-0.262 -0.543,-0.623 -0.543,-1.261c0,-0.97 0.347,-1.527 1.116,-1.751c0.542,-0.161 1.415,-0.237 2.736,-0.237c1.484,0 2.262,0.105 2.707,0.385c0.476,0.291 0.621,0.633 0.651,1.537l-0.758,0c-0.008,-0.509 -0.096,-0.747 -0.31,-0.913c-0.299,-0.233 -0.98,-0.333 -2.281,-0.333c-2.553,0 -3.045,0.204 -3.045,1.246c0,0.442 0.126,0.694 0.397,0.823c0.34,0.153 0.612,0.176 2.465,0.186c2.067,0.01 2.495,0.048 2.969,0.271c0.514,0.252 0.737,0.69 0.737,1.494c0,0.885 -0.299,1.427 -0.94,1.656c-0.475,0.185 -1.234,0.257 -2.707,0.257c-1.565,0 -2.321,-0.072 -2.836,-0.243c-0.58,-0.205 -0.901,-0.7 -0.901,-1.399l0,-0.447"/><path d="M94.756,41.787l0.775,0l0,5.823l5.134,0l0,0.647l-5.909,0"/><path d="M109.465,42.31c0.417,0.438 0.513,0.951 0.513,2.717c0,1.756 -0.096,2.279 -0.513,2.707c-0.495,0.505 -0.999,0.595 -3.65,0.595c-2.638,0 -3.154,-0.09 -3.649,-0.595c-0.416,-0.428 -0.513,-0.951 -0.513,-2.707c0,-1.756 0.097,-2.289 0.513,-2.717c0.495,-0.514 1.011,-0.59 3.687,-0.59c2.591,0 3.117,0.085 3.612,0.59m-6.666,0.485c-0.264,0.281 -0.342,0.766 -0.342,2.232c0,1.456 0.078,1.95 0.342,2.221c0.329,0.338 0.745,0.4 3.016,0.4c2.272,0 2.689,-0.062 3.02,-0.4c0.262,-0.271 0.34,-0.755 0.34,-2.221c0,-2.631 0,-2.631 -3.322,-2.631c-2.209,0 -2.754,0.071 -3.054,0.399"/><path d="M111.478,41.787l3.25,5.899l3.263,-5.899l0.862,0l-3.579,6.47l-1.089,0l-3.582,-6.47"/><path d="M119.561,41.787l6.442,0l0,0.651l-5.667,0l0,2.16l5.464,0l0,0.614l-5.464,0l0,2.398l5.716,0l0.001,0.647l-6.493,0"/><path d="M127.507,41.787l1.249,0l6.113,5.919l0,-5.919l0.779,0l0,6.47l-1.252,0l-6.113,-5.919l0,5.919l-0.776,0"/><path d="M137.98,46.24l0,0.176c0,0.652 0.139,0.909 0.555,1.046c0.381,0.124 1.129,0.186 2.26,0.186c2.527,0 2.991,-0.194 2.991,-1.27c0,-0.543 -0.164,-0.79 -0.603,-0.914c-0.426,-0.119 -0.456,-0.119 -3.355,-0.137c-1.176,-0.01 -1.679,-0.096 -2.077,-0.358c-0.388,-0.262 -0.542,-0.623 -0.542,-1.261c0,-0.97 0.349,-1.527 1.115,-1.751c0.543,-0.161 1.416,-0.237 2.736,-0.237c1.484,0 2.262,0.105 2.707,0.385c0.476,0.291 0.621,0.633 0.649,1.537l-0.756,0c-0.011,-0.509 -0.097,-0.747 -0.312,-0.913c-0.298,-0.233 -0.977,-0.333 -2.279,-0.333c-2.55,0 -3.049,0.204 -3.049,1.246c0,0.442 0.129,0.694 0.399,0.823c0.34,0.153 0.612,0.176 2.467,0.186c2.065,0.01 2.492,0.048 2.968,0.271c0.515,0.252 0.735,0.69 0.735,1.494c0,0.885 -0.297,1.427 -0.94,1.656c-0.475,0.185 -1.232,0.257 -2.706,0.257c-1.563,0 -2.319,-0.072 -2.834,-0.243c-0.582,-0.205 -0.9,-0.7 -0.9,-1.399l0,-0.447"/><path d="M146.132,41.787l0.778,0l0,2.826l1.172,0l4.232,-2.826l1.309,0l-4.725,3.135l4.97,3.335l-1.302,0l-4.503,-3.035l-1.153,0l0,3.035l-0.778,0"/><path d="M155.193,46.801l-0.854,1.456l-0.864,0l3.816,-6.47l1.097,0l3.813,6.47l-0.856,0l-0.854,-1.456l-5.298,0Zm2.648,-4.472l-2.28,3.864l4.562,0l-2.282,-3.864Zm-0.766,-1.58l2.429,-0.747l0.261,0.69l-2.545,0.495"/><path d="M165.33,41.787l5.338,0c0.979,0 1.436,0.124 1.775,0.495c0.262,0.29 0.4,0.785 0.4,1.484c0,0.737 -0.164,1.175 -0.514,1.375c-0.233,0.128 -0.43,0.176 -0.942,0.224c0.424,0.051 0.599,0.09 0.803,0.195c0.363,0.194 0.527,0.504 0.527,1.018l0,1.679l-0.779,0l0,-1.232c0,-0.628 -0.066,-0.9 -0.253,-1.094c-0.222,-0.215 -0.482,-0.281 -1.133,-0.281l-4.446,0l0,2.607l-0.776,0l0,-6.47Zm5.039,3.25c1.327,0 1.667,-0.262 1.667,-1.309c0,-1.028 -0.351,-1.29 -1.715,-1.29l-4.215,0l0,2.599"/><path d="M174.51,41.787l6.44,0l0,0.651l-5.664,0l0,2.16l5.462,0l0,0.614l-5.462,0l0,2.398l5.714,0l0,0.647l-6.49,0"/><path d="M182.456,41.787l5.218,0c1.019,0 1.418,0.094 1.728,0.427c0.283,0.291 0.389,0.709 0.389,1.486c0,0.941 -0.127,1.345 -0.514,1.66c-0.322,0.252 -0.728,0.356 -1.427,0.356l-4.622,0l0,2.541l-0.772,0l0,-6.47Zm4.818,3.278c1.392,0 1.712,-0.243 1.712,-1.318c0,-1.047 -0.311,-1.309 -1.552,-1.309l-4.206,0l0,2.627"/><path d="M198.717,41.787l0,4.396c0,0.719 -0.021,0.913 -0.098,1.142c-0.299,0.818 -0.98,1.004 -3.719,1.004c-2.218,0 -2.978,-0.12 -3.404,-0.529c-0.232,-0.219 -0.35,-0.48 -0.387,-0.861c-0.019,-0.156 -0.019,-0.309 -0.019,-0.756l0,-4.396l0.775,0l0,4.258c0,0.604 0,0.661 0.039,0.819c0.164,0.679 0.573,0.784 2.996,0.784c2.049,0 2.585,-0.076 2.846,-0.438c0.176,-0.233 0.195,-0.346 0.195,-1.165l0,-4.258"/><path d="M200.451,41.787l5.181,0c0.952,0 1.33,0.086 1.649,0.376c0.32,0.29 0.456,0.689 0.456,1.322c0,0.962 -0.262,1.242 -1.241,1.356c0.61,0.043 0.844,0.1 1.056,0.267c0.283,0.209 0.42,0.618 0.42,1.261c0,1.327 -0.601,1.888 -2.05,1.888l-5.471,0l0,-6.47Zm4.639,2.783c1.027,0 1.279,-0.029 1.504,-0.161c0.232,-0.149 0.339,-0.429 0.339,-0.886c0,-0.823 -0.332,-1.085 -1.389,-1.085l-4.318,0l0,2.132l3.864,0Zm0.482,3.04c1.279,0 1.594,-0.242 1.594,-1.232c0,-0.995 -0.302,-1.194 -1.769,-1.194l-4.171,0l0,2.426"/><path d="M209.48,41.787l0.779,0l0,5.823l5.131,0l0,0.647l-5.91,0"/><rect x="216.484" y="41.787" width="0.778" height="6.47"/><path d="M219.078,41.787l0.773,0l0,2.826l1.175,0l4.232,-2.826l1.311,0l-4.729,3.135l4.969,3.335l-1.298,0l-4.503,-3.035l-1.157,0l0,3.035l-0.773,0"/><path d="M228.14,46.801l-0.856,1.456l-0.864,0l3.812,-6.47l1.098,0l3.815,6.47l-0.856,0l-0.854,-1.456l-5.295,0Zm2.647,-4.472l-2.279,3.864l4.561,0"/><path d="M93.621,59.02l0,0.271c0,0.776 -0.076,1.118 -0.328,1.409c-0.243,0.29 -0.564,0.427 -1.156,0.494c-0.369,0.029 -1.473,0.067 -2.346,0.067c-2.341,0 -2.915,-0.096 -3.388,-0.591c-0.419,-0.427 -0.516,-0.941 -0.516,-2.707c0,-2.007 0.148,-2.536 0.797,-2.95c0.485,-0.299 1.056,-0.361 3.697,-0.361c1.601,0 2.184,0.076 2.581,0.371c0.435,0.3 0.573,0.709 0.602,1.737l-0.756,0l0,-0.167c0,-1.146 -0.284,-1.261 -2.991,-1.261c-3.105,0 -3.124,0.019 -3.124,2.631c0,1.466 0.067,1.952 0.341,2.222c0.309,0.319 0.804,0.396 2.619,0.396c2.912,0 3.212,-0.105 3.212,-1.19l0,-0.371l0.756,0Zm-5.655,-5.677l0.124,-0.409l1.758,0.447l1.768,-0.447l0.123,0.409l-1.891,0.777"/><path d="M95.172,54.723l6.442,0l0,0.648l-5.666,0l0,2.165l5.464,0l0,0.613l-5.464,0l0,2.393l5.714,0l0,0.652l-6.49,0"/><path d="M103.642,59.177l0,0.171c0,0.651 0.138,0.913 0.552,1.052c0.38,0.128 1.128,0.181 2.264,0.181c2.521,0 2.989,-0.196 2.989,-1.271c0,-0.542 -0.167,-0.785 -0.603,-0.913c-0.428,-0.114 -0.456,-0.114 -3.358,-0.134c-1.176,-0.01 -1.678,-0.095 -2.074,-0.356c-0.392,-0.262 -0.545,-0.624 -0.545,-1.266c0,-0.966 0.349,-1.522 1.117,-1.746c0.543,-0.167 1.416,-0.243 2.736,-0.243c1.484,0 2.259,0.109 2.707,0.39c0.474,0.29 0.621,0.633 0.647,1.533l-0.754,0c-0.012,-0.505 -0.098,-0.747 -0.311,-0.91c-0.301,-0.238 -0.98,-0.333 -2.282,-0.333c-2.55,0 -3.045,0.205 -3.045,1.243c0,0.447 0.126,0.699 0.397,0.827c0.34,0.152 0.611,0.172 2.467,0.18c2.065,0.01 2.491,0.048 2.967,0.272c0.514,0.257 0.737,0.69 0.737,1.494c0,0.885 -0.299,1.432 -0.942,1.66c-0.473,0.186 -1.232,0.253 -2.707,0.253c-1.561,0 -2.316,-0.067 -2.834,-0.243c-0.582,-0.204 -0.9,-0.694 -0.9,-1.394l0,-0.447"/><path d="M111.789,54.723l0.778,0l0,2.821l1.175,0l4.23,-2.821l1.308,0l-4.722,3.131l4.967,3.34l-1.3,0l-4.504,-3.04l-1.154,0l0,3.04l-0.778,0"/><path d="M120.851,59.738l-0.854,1.456l-0.864,0l3.817,-6.471l1.095,0l3.815,6.471l-0.855,0l-0.855,-1.456l-5.299,0Zm2.65,-4.472l-2.282,3.858l4.564,0l-2.282,-3.858Zm-0.766,-1.585l2.427,-0.747l0.261,0.69l-2.543,0.496"/><path d="M130.987,54.723l5.339,0c0.979,0 1.439,0.124 1.776,0.49c0.26,0.295 0.398,0.79 0.398,1.49c0,0.737 -0.162,1.17 -0.514,1.375c-0.233,0.128 -0.426,0.175 -0.939,0.223c0.423,0.048 0.598,0.091 0.803,0.196c0.36,0.195 0.524,0.503 0.524,1.017l0,1.68l-0.779,0l0,-1.233c0,-0.632 -0.066,-0.903 -0.252,-1.093c-0.22,-0.214 -0.482,-0.286 -1.134,-0.286l-4.444,0l0,2.612l-0.778,0l0,-6.471Zm5.038,3.25c1.329,0 1.668,-0.262 1.668,-1.313c0,-1.028 -0.35,-1.289 -1.716,-1.289l-4.212,0l0,2.602"/><path d="M140.168,54.723l6.441,0l0,0.648l-5.666,0l0,2.165l5.465,0l0,0.613l-5.465,0l0,2.393l5.717,0l0,0.652l-6.492,0"/><path d="M148.113,54.723l5.22,0c1.018,0 1.418,0.096 1.727,0.424c0.283,0.295 0.387,0.709 0.387,1.484c0,0.943 -0.125,1.352 -0.514,1.66c-0.318,0.253 -0.727,0.363 -1.426,0.363l-4.619,0l0,2.54l-0.775,0l0,-6.471Zm4.822,3.278c1.39,0 1.708,-0.242 1.708,-1.317c0,-1.052 -0.311,-1.313 -1.553,-1.313l-4.202,0l0,2.63"/><path d="M164.373,54.723l0,4.392c0,0.723 -0.02,0.914 -0.094,1.146c-0.302,0.819 -0.98,1 -3.719,1c-2.222,0 -2.978,-0.114 -3.406,-0.523c-0.231,-0.224 -0.35,-0.486 -0.388,-0.862c-0.02,-0.157 -0.02,-0.314 -0.02,-0.761l0,-4.392l0.775,0l0,4.259c0,0.599 0,0.656 0.04,0.813c0.166,0.681 0.573,0.786 2.999,0.786c2.048,0 2.582,-0.077 2.845,-0.434c0.174,-0.232 0.193,-0.352 0.193,-1.165l0,-4.259"/><path d="M166.106,54.723l5.186,0c0.946,0 1.327,0.086 1.647,0.376c0.32,0.29 0.454,0.691 0.454,1.318c0,0.961 -0.261,1.242 -1.238,1.361c0.608,0.038 0.843,0.095 1.055,0.262c0.284,0.213 0.42,0.623 0.42,1.26c0,1.332 -0.602,1.894 -2.048,1.894l-5.476,0l0,-6.471Zm4.644,2.783c1.025,0 1.277,-0.028 1.5,-0.166c0.233,-0.142 0.34,-0.428 0.34,-0.884c0,-0.824 -0.329,-1.085 -1.387,-1.085l-4.321,0l0,2.135l3.868,0Zm0.481,3.036c1.28,0 1.593,-0.243 1.593,-1.232c0,-0.989 -0.304,-1.189 -1.766,-1.189l-4.176,0l0,2.421"/><path d="M175.141,54.723l0.775,0l0,5.819l5.135,0l0,0.652l-5.91,0"/><rect x="182.144" y="54.723" width="0.776" height="6.471"/><path d="M184.735,54.723l0.775,0l0,2.821l1.173,0l4.233,-2.821l1.31,0l-4.726,3.131l4.968,3.34l-1.3,0l-4.501,-3.04l-1.157,0l0,3.04l-0.775,0"/><path d="M193.797,59.738l-0.854,1.456l-0.864,0l3.814,-6.471l1.096,0l3.814,6.471l-0.854,0l-0.857,-1.456l-5.295,0Zm2.65,-4.472l-2.281,3.858l4.561,0"/><path d="M40.096,27.039c6.404,9.772 10.138,21.449 10.138,33.981c0,0.033 -0.002,0.062 -0.002,0.095l22.161,0c3.361,0 6.111,-2.745 6.111,-6.109l0,-26.316c-7.335,-1.944 -15.074,-2.971 -23.012,-2.971c-5.281,0 -10.43,0.461 -15.396,1.32" style="fill:#82c8f0;"/><path d="M1.228,2.462c-0.767,1.023 -1.228,2.283 -1.228,3.652l0,37.173c9.709,-8.479 22.269,-14.747 36.43,-17.747c-8.442,-11.471 -20.858,-19.847 -35.202,-23.078" style="fill:#f00;"/><path d="M72.394,0l-66.281,0c-1.033,0 -2.004,0.261 -2.86,0.718c14.547,3.671 27.063,12.482 35.516,24.377c5.383,-0.992 10.976,-1.534 16.724,-1.534c7.924,0 15.66,0.999 23.012,2.897l0,-20.344c0,-3.364 -2.75,-6.114 -6.111,-6.114" style="fill:#00aeef;"/><path d="M9.597,43.582c-0.007,-0.153 -0.033,-0.275 -0.08,-0.365c-0.046,-0.09 -0.128,-0.156 -0.245,-0.2c-0.116,-0.043 -0.27,-0.072 -0.46,-0.084c-0.19,-0.014 -0.435,-0.02 -0.735,-0.02l-0.13,0c-0.034,0 -0.077,0.003 -0.13,0.01c-0.433,0.02 -0.797,0.03 -1.09,0.03c-0.294,0 -0.53,0.015 -0.71,0.045c-0.18,0.03 -0.31,0.085 -0.39,0.165c-0.08,0.08 -0.12,0.213 -0.12,0.4c0,0.166 0.06,0.291 0.18,0.375c0.12,0.083 0.286,0.128 0.5,0.135c0.3,0.007 0.585,0.013 0.855,0.02c0.27,0.007 0.522,0.01 0.755,0.01c0.14,0 0.285,-0.001 0.435,-0.005c0.15,-0.003 0.292,-0.005 0.425,-0.005c0.553,0 1.033,0.015 1.44,0.045c0.407,0.03 0.742,0.112 1.005,0.245c0.264,0.133 0.458,0.337 0.585,0.61c0.127,0.273 0.19,0.656 0.19,1.15c0,0.347 -0.033,0.64 -0.1,0.88c-0.067,0.24 -0.172,0.438 -0.315,0.595c-0.143,0.156 -0.325,0.278 -0.545,0.365c-0.22,0.087 -0.484,0.146 -0.79,0.18c-0.18,0.02 -0.527,0.044 -1.04,0.07c-0.513,0.026 -1.17,0.04 -1.97,0.04c-0.787,0 -1.428,-0.023 -1.925,-0.07c-0.497,-0.047 -0.858,-0.15 -1.085,-0.31c-0.16,-0.113 -0.279,-0.235 -0.355,-0.365c-0.077,-0.13 -0.13,-0.268 -0.16,-0.415c-0.03,-0.147 -0.045,-0.305 -0.045,-0.475l0,-0.555l2.01,0l0,0.23c0,0.08 0.017,0.152 0.05,0.215c0.033,0.063 0.094,0.12 0.18,0.17c0.087,0.05 0.22,0.082 0.4,0.095c0.087,0.007 0.248,0.013 0.485,0.02c0.237,0.007 0.535,0.01 0.895,0.01c0.467,0 0.848,-0.003 1.145,-0.01c0.297,-0.007 0.529,-0.03 0.695,-0.07c0.167,-0.04 0.28,-0.1 0.34,-0.18c0.06,-0.08 0.09,-0.197 0.09,-0.35c0,-0.147 -0.03,-0.262 -0.09,-0.345c-0.06,-0.083 -0.147,-0.143 -0.26,-0.18c-0.113,-0.037 -0.248,-0.059 -0.405,-0.065c-0.157,-0.007 -0.328,-0.01 -0.515,-0.01c-0.654,-0.007 -1.233,-0.009 -1.74,-0.005c-0.507,0.003 -0.947,-0.008 -1.32,-0.035c-0.373,-0.027 -0.688,-0.073 -0.945,-0.14c-0.257,-0.067 -0.464,-0.173 -0.62,-0.32c-0.157,-0.147 -0.27,-0.34 -0.34,-0.58c-0.07,-0.24 -0.105,-0.543 -0.105,-0.91c0,-0.327 0.028,-0.61 0.085,-0.85c0.057,-0.24 0.152,-0.441 0.285,-0.605c0.133,-0.164 0.308,-0.29 0.525,-0.38c0.217,-0.09 0.485,-0.155 0.805,-0.195c0.213,-0.027 0.558,-0.053 1.035,-0.08c0.477,-0.027 1.075,-0.04 1.795,-0.04c0.38,0 0.722,0.002 1.025,0.005c0.303,0.002 0.573,0.017 0.81,0.044c0.236,0.028 0.445,0.066 0.625,0.116c0.18,0.05 0.337,0.125 0.47,0.225c0.147,0.107 0.262,0.22 0.345,0.34c0.084,0.12 0.145,0.249 0.185,0.389c0.04,0.14 0.067,0.292 0.08,0.455c0.013,0.163 0.02,0.343 0.02,0.535l-1.99,0.001Z" style="fill-rule:nonzero;"/><path d="M14.667,41.542l0,2.51l1.05,0l2.75,-2.51l2.8,0l-3.82,3.3l4.23,3.37l-2.97,0l-2.99,-2.54l-1.05,0l0,2.54l-2.01,0l0,-6.67l2.01,0Z" style="fill-rule:nonzero;"/><rect x="21.897" y="44.952" width="4.64" height="1.7"/><path d="M33.727,43.893c-0.007,-0.208 -0.038,-0.364 -0.091,-0.471c-0.053,-0.107 -0.153,-0.183 -0.3,-0.23c-0.147,-0.047 -0.355,-0.072 -0.625,-0.075c-0.27,-0.003 -0.625,-0.005 -1.065,-0.005c-0.5,0 -0.903,0.005 -1.21,0.015c-0.307,0.01 -0.546,0.058 -0.72,0.145c-0.173,0.086 -0.29,0.231 -0.35,0.435c-0.06,0.203 -0.09,0.498 -0.09,0.885c0,0.493 0.015,0.875 0.045,1.145c0.03,0.27 0.12,0.47 0.27,0.6c0.15,0.13 0.382,0.206 0.695,0.23c0.314,0.023 0.75,0.035 1.31,0.035l1.05,0c0.281,0 0.502,-0.027 0.666,-0.08c0.164,-0.053 0.28,-0.145 0.35,-0.275c0.07,-0.13 0.105,-0.325 0.105,-0.585l2,0c0,0.053 0.002,0.102 0.005,0.145c0.003,0.043 0.005,0.091 0.005,0.145c-0.001,0.34 -0.023,0.64 -0.066,0.9c-0.042,0.26 -0.117,0.48 -0.224,0.66c-0.108,0.18 -0.251,0.323 -0.431,0.43c-0.18,0.107 -0.403,0.173 -0.67,0.2c-0.433,0.046 -0.842,0.082 -1.224,0.105c-0.384,0.023 -0.736,0.035 -1.056,0.035c-1.047,0 -2.023,-0.03 -2.93,-0.09c-0.353,-0.02 -0.653,-0.097 -0.9,-0.23c-0.246,-0.133 -0.446,-0.328 -0.6,-0.585c-0.153,-0.257 -0.265,-0.578 -0.335,-0.965c-0.07,-0.387 -0.105,-0.849 -0.105,-1.389c0,-0.34 0.004,-0.652 0.01,-0.935c0.007,-0.283 0.032,-0.544 0.075,-0.78c0.044,-0.237 0.11,-0.454 0.2,-0.65c0.09,-0.197 0.219,-0.375 0.385,-0.535c0.167,-0.16 0.362,-0.283 0.585,-0.37c0.223,-0.088 0.485,-0.151 0.785,-0.191c0.3,-0.039 0.64,-0.064 1.02,-0.075c0.38,-0.009 0.807,-0.014 1.28,-0.014c0.82,0 1.495,0.017 2.025,0.05c0.53,0.033 0.948,0.126 1.255,0.28c0.307,0.153 0.52,0.393 0.64,0.72c0.12,0.327 0.184,0.783 0.19,1.37l-1.96,0Z" style="fill-rule:nonzero;"/><path d="M44.247,43.092l-5.08,3.58l5.18,0l0,1.54l-8.12,0l0,-1.54l5.03,-3.58l-4.9,0l0,-1.55l7.89,0l0,1.55Z" style="fill-rule:nonzero;"/><path d="M9.887,53.607l0,6.67l-2.01,0l0,-5.1l-2.42,1.66l-0.9,-1.36l2.85,-1.87l2.48,0Z" style="fill-rule:nonzero;"/><path d="M17.337,57.567l0,-2.46l-3.93,2.46l3.93,0Zm1.85,-3.96l0,3.96l1.08,0l0,1.38l-1.08,0l0,1.33l-1.85,0l0,-1.33l-5.32,0l0,-2.35l4.82,-2.99l2.35,0Z" style="fill-rule:nonzero;"/><rect x="21.147" y="57.017" width="4.64" height="1.7"/><path d="M34.597,58.947l0,1.32l-7.83,0l0,-1.65c0,-0.48 0.063,-0.846 0.19,-1.1c0.126,-0.253 0.325,-0.44 0.595,-0.56c0.27,-0.12 0.618,-0.198 1.045,-0.235c0.426,-0.037 0.94,-0.075 1.54,-0.115c0.566,-0.04 1.018,-0.072 1.355,-0.095c0.336,-0.023 0.595,-0.062 0.775,-0.115c0.18,-0.053 0.298,-0.132 0.355,-0.235c0.057,-0.103 0.085,-0.258 0.085,-0.465c0,-0.187 -0.032,-0.327 -0.095,-0.42c-0.063,-0.093 -0.17,-0.158 -0.32,-0.195c-0.15,-0.036 -0.352,-0.055 -0.605,-0.055l-0.94,0c-0.513,0 -0.923,0.007 -1.23,0.02c-0.307,0.013 -0.527,0.077 -0.66,0.19c-0.073,0.06 -0.125,0.122 -0.155,0.185c-0.03,0.064 -0.052,0.132 -0.065,0.205c-0.014,0.073 -0.02,0.15 -0.02,0.23l0,0.26l-1.85,0l0,-0.47c0,-0.473 0.048,-0.843 0.145,-1.11c0.097,-0.266 0.3,-0.465 0.61,-0.595c0.31,-0.13 0.755,-0.21 1.335,-0.24c0.58,-0.03 1.35,-0.045 2.31,-0.045c0.62,0 1.148,0.012 1.585,0.035c0.436,0.024 0.793,0.1 1.07,0.23c0.276,0.13 0.477,0.33 0.6,0.6c0.123,0.27 0.185,0.655 0.185,1.155c0,0.62 -0.089,1.099 -0.265,1.435c-0.177,0.337 -0.469,0.542 -0.875,0.615c-0.38,0.074 -0.792,0.132 -1.235,0.175c-0.444,0.044 -0.908,0.072 -1.395,0.085c-0.587,0.02 -1.032,0.045 -1.335,0.075c-0.303,0.03 -0.522,0.078 -0.655,0.145c-0.133,0.067 -0.208,0.16 -0.225,0.28c-0.017,0.12 -0.025,0.273 -0.025,0.46l6,0Z" style="fill-rule:nonzero;"/><path d="M37.637,56.947c0,0.42 0.019,0.745 0.055,0.975c0.037,0.23 0.13,0.402 0.28,0.515c0.15,0.114 0.373,0.182 0.67,0.205c0.297,0.024 0.705,0.035 1.225,0.035c0.5,0 0.892,-0.013 1.175,-0.04c0.283,-0.026 0.498,-0.098 0.645,-0.215c0.147,-0.117 0.239,-0.29 0.275,-0.52c0.037,-0.23 0.055,-0.552 0.055,-0.965c0,-0.427 -0.018,-0.76 -0.055,-1c-0.036,-0.24 -0.127,-0.418 -0.27,-0.535c-0.143,-0.117 -0.36,-0.188 -0.65,-0.215c-0.29,-0.027 -0.688,-0.04 -1.195,-0.04c-0.506,0 -0.906,0.012 -1.2,0.035c-0.293,0.023 -0.515,0.094 -0.665,0.21c-0.15,0.117 -0.245,0.295 -0.285,0.535c-0.04,0.24 -0.06,0.58 -0.06,1.02m-1.97,-0.03c0,-0.56 0.025,-1.032 0.075,-1.415c0.05,-0.383 0.137,-0.698 0.26,-0.945c0.123,-0.247 0.295,-0.437 0.515,-0.57c0.22,-0.133 0.498,-0.23 0.835,-0.29c0.337,-0.06 0.742,-0.095 1.215,-0.105c0.473,-0.01 1.03,-0.015 1.67,-0.015c0.533,0 0.999,0.014 1.395,0.04c0.397,0.027 0.734,0.08 1.01,0.16c0.277,0.08 0.503,0.195 0.68,0.345c0.177,0.15 0.315,0.348 0.415,0.595c0.1,0.247 0.169,0.55 0.205,0.91c0.037,0.36 0.055,0.79 0.055,1.29c0,0.573 -0.022,1.057 -0.065,1.45c-0.043,0.393 -0.125,0.715 -0.245,0.965c-0.12,0.25 -0.285,0.442 -0.495,0.575c-0.21,0.134 -0.487,0.232 -0.83,0.295c-0.343,0.063 -0.758,0.099 -1.245,0.105c-0.486,0.007 -1.063,0.01 -1.73,0.01c-0.546,0 -1.017,-0.01 -1.41,-0.03c-0.393,-0.02 -0.728,-0.068 -1.005,-0.145c-0.276,-0.076 -0.5,-0.188 -0.67,-0.335c-0.17,-0.147 -0.302,-0.346 -0.395,-0.6c-0.093,-0.253 -0.157,-0.567 -0.19,-0.94c-0.033,-0.373 -0.05,-0.823 -0.05,-1.35" style="fill-rule:nonzero;"/><path d="M40.638,50.481l-0.116,0l-33.544,0l-3.726,0l0,0.724l41.111,0l0,-0.724l-3.725,0Z" style="fill-rule:nonzero;"/></svg>