<?xml version="1.0" encoding="UTF-8" standalone="no"?><!DOCTYPE svg PUBLIC "-//W3C//DTD SVG 1.1//EN" "http://www.w3.org/Graphics/SVG/1.1/DTD/svg11.dtd"><svg width="100%" height="100%" viewBox="0 0 685 102" version="1.1" xmlns="http://www.w3.org/2000/svg" xmlns:xlink="http://www.w3.org/1999/xlink" xml:space="preserve" xmlns:serif="http://www.serif.com/" style="fill-rule:evenodd;clip-rule:evenodd;stroke-linejoin:round;stroke-miterlimit:1.41421;"><g><rect x="0" y="0" width="223.254" height="16.292" style="fill:#cee5b8;"/><rect x="230.808" y="0" width="223.258" height="16.292" style="fill:#7bc143;"/><rect x="461.638" y="0" width="223.238" height="16.292" style="fill:#467a26;"/><path d="M70.982,73.633c-0.296,-5.2 -0.583,-10.984 -0.408,-15.425l-0.234,0c-0.87,4.383 -1.929,9.054 -3.154,13.67l-4.85,18.463l-2.862,0l-4.617,-17.7c-1.287,-5.025 -2.45,-9.875 -3.212,-14.433l-0.18,0c0,4.616 -0.225,10.108 -0.458,15.716l-0.762,16.65l-4.034,0l2.338,-39.375l4.85,0l4.612,17.992c1.346,5.2 2.342,9.058 3.154,13.554l0.175,0c0.763,-4.496 1.638,-8.237 2.921,-13.554l4.442,-17.992l5.029,0l2.271,39.375l-4.204,0l-0.817,-16.941Z" style="fill:#1a1619;fill-rule:nonzero;"/><path d="M82.842,62.3l4.5,0l0,28.275l-4.5,0l0,-28.275Zm4.854,-7.304c0.058,1.754 -1.054,2.921 -2.754,2.921c-1.454,0 -2.563,-1.167 -2.563,-2.921c0,-1.75 1.167,-2.921 2.621,-2.921c1.642,0 2.696,1.171 2.696,2.921" style="fill:#1a1619;fill-rule:nonzero;"/><path d="M94.472,69.602c0,-3.33 -0.175,-5.025 -0.238,-7.305l3.913,0l0.237,3.392l0.117,0c1.229,-2.279 3.508,-3.858 6.487,-3.858c3.909,0 6.838,2.921 6.838,9.758l0,18.988l-4.5,0l0,-18.23c0,-3.329 -0.646,-6.72 -3.921,-6.72c-1.867,0 -3.675,1.579 -4.258,4.616c-0.113,0.7 -0.171,1.579 -0.171,2.513l0,17.821l-4.504,0l0,-20.975Z" style="fill:#1a1619;fill-rule:nonzero;"/><path d="M119.017,62.3l4.5,0l0,28.275l-4.5,0l0,-28.275Zm4.841,-7.304c0.063,1.754 -1.045,2.921 -2.737,2.921c-1.467,0 -2.575,-1.167 -2.575,-2.921c0,-1.75 1.171,-2.921 2.633,-2.921c1.634,0 2.679,1.171 2.679,2.921" style="fill:#1a1619;fill-rule:nonzero;"/><path d="M129.883,85.9c0.992,0.645 2.742,1.462 4.559,1.462c2.566,0 4.146,-1.579 4.146,-4.092c0,-2.162 -0.759,-3.62 -3.625,-5.55c-3.675,-2.395 -5.663,-4.787 -5.663,-8.062c0,-4.554 3.383,-7.825 7.767,-7.825c2.221,0 3.921,0.758 5.087,1.458l-1.229,3.388c-1.05,-0.7 -2.279,-1.225 -3.742,-1.225c-2.458,0 -3.675,1.75 -3.675,3.562c0,1.925 0.696,2.979 3.5,4.909c3.271,2.1 5.846,4.675 5.846,8.587c0,5.667 -3.862,8.413 -8.471,8.413c-2.1,0 -4.383,-0.642 -5.612,-1.634l1.112,-3.391Z" style="fill:#1a1619;fill-rule:nonzero;"/><path d="M153.892,55.699l0,6.6l5.433,0l0,3.446l-5.433,0l0,16.766c0,3.679 1.342,4.675 2.975,4.675c0.704,0 1.288,-0.058 1.813,-0.175l0.179,3.446c-0.821,0.292 -1.875,0.467 -3.329,0.467c-1.759,0 -3.33,-0.467 -4.438,-1.692c-1.112,-1.287 -1.704,-3.212 -1.704,-7.129l0,-16.358l-3.442,0l0,-3.446l3.442,0l0,-4.788l4.504,-1.812Z" style="fill:#1a1619;fill-rule:nonzero;"/><path d="M175.741,73.516c0.117,-5.667 -2.041,-8.179 -4.208,-8.179c-2.917,0 -4.438,4.321 -4.613,8.179l8.821,0Zm-8.879,3.329c0.058,8.646 3.446,10.517 6.717,10.517c1.929,0 3.566,-0.467 4.679,-1.113l0.696,3.334c-1.579,0.875 -3.967,1.341 -6.188,1.341c-6.783,0 -10.291,-5.55 -10.291,-14.196c0,-9.17 3.862,-14.895 9.533,-14.895c5.779,0 8.058,6.075 8.058,12.5c0,1.054 0,1.812 -0.058,2.512l-13.146,0Z" style="fill:#1a1619;fill-rule:nonzero;"/><path d="M185.734,69.602c0,-2.396 -0.166,-5.2 -0.229,-7.305l4.029,0l0.238,4.442l0.108,0c0.942,-2.687 3.329,-4.908 5.967,-4.908c0.35,0 0.637,0.058 0.929,0.058l0,4.617c-0.292,-0.059 -0.579,-0.059 -0.929,-0.059c-2.863,0 -4.967,2.63 -5.438,5.9c-0.116,0.759 -0.175,1.638 -0.175,2.571l0,15.659l-4.5,0l0,-20.975Z" style="fill:#1a1619;fill-rule:nonzero;"/><path d="M200.402,85.9c0.992,0.645 2.742,1.462 4.55,1.462c2.579,0 4.15,-1.579 4.15,-4.092c0,-2.162 -0.762,-3.62 -3.617,-5.55c-3.683,-2.395 -5.67,-4.787 -5.67,-8.062c0,-4.554 3.387,-7.825 7.775,-7.825c2.216,0 3.908,0.758 5.079,1.458l-1.229,3.388c-1.05,-0.7 -2.28,-1.225 -3.734,-1.225c-2.458,0 -3.683,1.75 -3.683,3.562c0,1.925 0.696,2.979 3.508,4.909c3.271,2.1 5.834,4.675 5.834,8.587c0,5.667 -3.85,8.413 -8.471,8.413c-2.104,0 -4.379,-0.642 -5.604,-1.634l1.112,-3.391Z" style="fill:#1a1619;fill-rule:nonzero;"/><path d="M224.415,55.699l0,6.6l5.434,0l0,3.446l-5.434,0l0,16.766c0,3.679 1.342,4.675 2.98,4.675c0.7,0 1.287,-0.058 1.808,-0.175l0.179,3.446c-0.821,0.292 -1.871,0.467 -3.329,0.467c-1.75,0 -3.338,-0.467 -4.446,-1.692c-1.108,-1.287 -1.692,-3.212 -1.692,-7.129l0,-16.358l-3.445,0l0,-3.446l3.445,0l0,-4.788l4.5,-1.812Z" style="fill:#1a1619;fill-rule:nonzero;"/><path d="M237.563,62.299l3.558,15.891c0.413,1.925 0.879,4.438 1.229,6.896l0.18,0c0.291,-2.341 0.75,-4.737 1.162,-6.896l3.508,-15.891l4.438,0l-7.358,28.275l-4.034,0l-7.358,-28.275l4.675,0Z" style="fill:#1a1619;fill-rule:nonzero;"/><path d="M258.945,76.436c0,4.675 0.813,11.041 4.908,11.041c3.859,0.001 4.617,-6.658 4.617,-11.041c0,-4.321 -0.758,-10.984 -4.733,-10.984c-4.025,0 -4.792,6.663 -4.792,10.984m14.079,0c0,10.925 -5.079,14.604 -9.404,14.604c-5.079,0 -9.179,-4.613 -9.179,-14.546c0,-10.341 4.621,-14.662 9.475,-14.662c5.021,0 9.108,4.733 9.108,14.604" style="fill:#1a1619;fill-rule:nonzero;"/><path d="M293.945,58.619l-4.621,-7.888l3.392,0l2.687,5.084l0.121,0l2.742,-5.084l3.392,0l-4.617,7.888l-3.096,0Zm-7.183,29.208l8.937,-17.467c0.759,-1.458 1.634,-2.92 2.271,-4.204l0,-0.116l-10.104,0l0,-3.742l15.079,0l0,2.979l-8.821,17.233c-0.762,1.463 -1.637,2.921 -2.283,4.209l0,0.116l11.104,0l0,3.738l-16.183,0l0,-2.746Z" style="fill:#1a1619;fill-rule:nonzero;"/><path d="M308.146,62.3l4.504,0l0,28.275l-4.504,0l0,-28.275Zm4.85,-7.304c0.058,1.754 -1.054,2.921 -2.746,2.921c-1.458,0 -2.575,-1.167 -2.575,-2.921c0,-1.75 1.171,-2.921 2.638,-2.921c1.629,0 2.683,1.171 2.683,2.921" style="fill:#1a1619;fill-rule:nonzero;"/><path d="M322.052,62.299l3.558,15.891c0.413,1.925 0.88,4.438 1.23,6.896l0.175,0c0.295,-2.341 0.758,-4.737 1.166,-6.896l3.509,-15.891l4.437,0l-7.358,28.275l-4.034,0l-7.362,-28.275l4.679,0Z" style="fill:#1a1619;fill-rule:nonzero;"/><path d="M343.435,76.436c0,4.675 0.816,11.041 4.908,11.041c3.854,0.001 4.617,-6.658 4.617,-11.041c0,-4.321 -0.763,-10.984 -4.734,-10.984c-4.025,0 -4.791,6.663 -4.791,10.984m14.079,0c0,10.925 -5.079,14.604 -9.404,14.604c-5.08,0 -9.18,-4.613 -9.18,-14.546c0,-10.341 4.621,-14.662 9.471,-14.662c5.025,0 9.113,4.733 9.113,14.604" style="fill:#1a1619;fill-rule:nonzero;"/><path d="M368.911,55.699l0,6.6l5.433,0l0,3.446l-5.433,0l0,16.766c0,3.679 1.342,4.675 2.975,4.675c0.704,0 1.292,-0.058 1.821,-0.175l0.171,3.446c-0.821,0.292 -1.871,0.467 -3.33,0.467c-1.754,0 -3.329,-0.467 -4.437,-1.692c-1.113,-1.287 -1.7,-3.212 -1.7,-7.129l0,-16.358l-3.442,0l0,-3.446l3.442,0l0,-4.788l4.5,-1.812Z" style="fill:#1a1619;fill-rule:nonzero;"/><path d="M379.196,69.602c0,-3.33 -0.179,-5.025 -0.233,-7.305l3.912,0l0.229,3.392l0.117,0c1.233,-2.279 3.508,-3.858 6.492,-3.858c3.912,0 6.837,2.921 6.837,9.758l0,18.988l-4.5,0l0,-18.23c0,-3.329 -0.646,-6.72 -3.921,-6.72c-1.862,0 -3.675,1.579 -4.262,4.616c-0.113,0.7 -0.171,1.579 -0.171,2.513l0,17.821l-4.5,0l0,-20.975Z" style="fill:#1a1619;fill-rule:nonzero;"/><path d="M403.738,62.3l4.5,0l0,28.275l-4.5,0l0,-28.275Zm9.112,-11.571l-6.133,7.888l-2.979,0l4.504,-7.888l4.608,0Z" style="fill:#1a1619;fill-rule:nonzero;"/><path d="M415.367,50.148l4.492,0l0,15.191l0.116,0c0.588,-0.996 1.463,-1.871 2.338,-2.454c1.05,-0.646 2.162,-1.054 3.804,-1.054c3.554,0 6.6,2.862 6.6,9.992l0,18.754l-4.496,0l0,-18.229c0,-3.446 -0.771,-6.721 -3.804,-6.721c-2.104,0 -3.679,1.521 -4.387,4.5c-0.109,0.641 -0.171,1.462 -0.171,2.162l0,18.288l-4.492,0l0,-40.429Z" style="fill:#1a1619;fill-rule:nonzero;"/><path d="M443.175,76.436c0,4.675 0.813,11.041 4.909,11.041c3.854,0.001 4.612,-6.658 4.612,-11.041c0,-4.321 -0.758,-10.984 -4.733,-10.984c-4.029,0 -4.788,6.663 -4.788,10.984m14.08,0c0,10.925 -5.084,14.604 -9.409,14.604c-5.075,0 -9.175,-4.613 -9.175,-14.546c0,-10.341 4.621,-14.662 9.471,-14.662c5.021,0 9.113,4.733 9.113,14.604" style="fill:#1a1619;fill-rule:nonzero;"/><path d="M477.648,80.175c0,0.875 0,1.696 0.171,2.338c0.884,4.033 2.925,4.791 4.154,4.791c3.734,0 4.905,-5.141 4.905,-10.866c0,-5.842 -1.405,-10.75 -4.963,-10.75c-2.046,0 -3.862,2.57 -4.15,5.141c-0.117,0.7 -0.117,1.404 -0.117,2.163l0,7.183Zm-4.5,-9.054c0,-4.325 -0.175,-6.838 -0.233,-8.821l4.025,0l0.233,3.621l0.121,0c1.521,-3.038 3.738,-4.088 5.959,-4.088c4.908,0 8.179,5.259 8.179,14.546c0,10.454 -4.321,14.663 -8.763,14.663c-2.629,0 -4.146,-1.696 -4.904,-3.271l-0.117,0l0,14.021l-4.5,0l0,-30.671Z" style="fill:#1a1619;fill-rule:nonzero;"/><path d="M497.336,69.602c0,-2.396 -0.175,-5.2 -0.233,-7.305l4.029,0l0.233,4.442l0.121,0c0.934,-2.687 3.329,-4.908 5.959,-4.908c0.35,0 0.641,0.058 0.933,0.058l0,4.617c-0.292,-0.059 -0.583,-0.059 -0.933,-0.059c-2.867,0 -4.963,2.63 -5.434,5.9c-0.112,0.759 -0.171,1.638 -0.171,2.571l0,15.659l-4.504,0l0,-20.975Z" style="fill:#1a1619;fill-rule:nonzero;"/><path d="M515.212,76.436c0,4.675 0.821,11.041 4.904,11.041c3.862,0.001 4.621,-6.658 4.621,-11.041c0,-4.321 -0.759,-10.984 -4.738,-10.984c-4.029,0 -4.787,6.663 -4.787,10.984m14.083,0c0,10.925 -5.087,14.604 -9.412,14.604c-5.08,0 -9.167,-4.613 -9.167,-14.546c0,-10.341 4.617,-14.662 9.462,-14.662c5.021,0 9.117,4.733 9.117,14.604" style="fill:#1a1619;fill-rule:nonzero;"/><path d="M534.433,85.9c0.992,0.645 2.746,1.462 4.559,1.462c2.566,0 4.15,-1.579 4.15,-4.092c0,-2.162 -0.759,-3.62 -3.629,-5.55c-3.675,-2.395 -5.659,-4.787 -5.659,-8.062c0,-4.554 3.379,-7.825 7.763,-7.825c2.221,0 3.921,0.758 5.087,1.458l-1.229,3.388c-1.05,-0.7 -2.279,-1.225 -3.742,-1.225c-2.454,0 -3.675,1.75 -3.675,3.562c0,1.925 0.7,2.979 3.5,4.909c3.275,2.1 5.846,4.675 5.846,8.587c0,5.667 -3.858,8.413 -8.466,8.413c-2.105,0 -4.388,-0.642 -5.613,-1.634l1.108,-3.391Z" style="fill:#1a1619;fill-rule:nonzero;"/><path d="M558.447,55.699l0,6.6l5.433,0l0,3.446l-5.433,0l0,16.766c0,3.679 1.346,4.675 2.979,4.675c0.704,0 1.287,-0.058 1.817,-0.175l0.175,3.446c-0.821,0.292 -1.875,0.467 -3.334,0.467c-1.754,0 -3.329,-0.467 -4.437,-1.692c-1.113,-1.287 -1.7,-3.212 -1.7,-7.129l0,-16.358l-3.438,0l0,-3.446l3.438,0l0,-4.788l4.5,-1.812Z" style="fill:#1a1619;fill-rule:nonzero;"/><path d="M568.675,69.602c0,-2.396 -0.18,-5.2 -0.234,-7.305l4.029,0l0.23,4.442l0.12,0c0.938,-2.687 3.334,-4.908 5.959,-4.908c0.354,0 0.646,0.058 0.937,0.058l0,4.617c-0.291,-0.059 -0.583,-0.059 -0.937,-0.059c-2.863,0 -4.963,2.63 -5.434,5.9c-0.112,0.759 -0.17,1.638 -0.17,2.571l0,15.659l-4.5,0l0,-20.975Zm3.275,-10.984l-4.621,-7.887l3.387,0l2.688,5.083l0.116,0l2.75,-5.083l3.392,0l-4.617,7.887l-3.095,0Z" style="fill:#1a1619;fill-rule:nonzero;"/><path d="M595.319,73.516c0.112,-5.667 -2.05,-8.179 -4.213,-8.179c-2.916,0 -4.433,4.321 -4.604,8.179l8.817,0Zm-8.879,3.329c0.062,8.646 3.445,10.517 6.716,10.517c1.929,0 3.563,-0.467 4.675,-1.113l0.704,3.334c-1.583,0.875 -3.979,1.341 -6.195,1.341c-6.78,0 -10.288,-5.55 -10.288,-14.196c0,-9.17 3.858,-14.895 9.525,-14.895c5.788,0 8.063,6.075 8.063,12.5c0,1.054 0,1.812 -0.055,2.512l-13.145,0Z" style="fill:#1a1619;fill-rule:nonzero;"/><path d="M617.933,73.049c0,-0.584 0,-1.229 -0.063,-1.871c-0.291,-2.921 -2.041,-5.492 -4.204,-5.492c-3.741,0 -5.029,5.2 -5.029,10.867c0,5.958 1.521,10.75 4.792,10.75c1.4,0 3.333,-0.758 4.325,-4.85c0.116,-0.525 0.179,-1.167 0.179,-1.867l0,-7.537Zm4.429,-22.9l0,33.646c0,1.929 0.179,5.141 0.233,6.779l-3.85,0l-0.291,-3.563l-0.179,0c-0.934,2.046 -2.921,4.029 -5.896,4.029c-4.796,0 -8.246,-5.2 -8.246,-14.487c0,-10.05 4.158,-14.721 8.533,-14.721c2.05,0 4.038,0.992 5.15,3.388l0.117,0l0,-15.071l4.429,0Z" style="fill:#1a1619;fill-rule:nonzero;"/><path d="M629.558,62.3l4.496,0l0,28.275l-4.496,0l0,-28.275Zm9.105,-11.571l-6.13,7.888l-2.975,0l4.496,-7.888l4.609,0Z" style="fill:#1a1619;fill-rule:nonzero;"/></g></svg>