<?xml version="1.0" encoding="UTF-8" standalone="no"?><!DOCTYPE svg PUBLIC "-//W3C//DTD SVG 1.1//EN" "http://www.w3.org/Graphics/SVG/1.1/DTD/svg11.dtd"><svg width="100%" height="100%" viewBox="0 0 413 292" version="1.1" xmlns="http://www.w3.org/2000/svg" xmlns:xlink="http://www.w3.org/1999/xlink" xml:space="preserve" xmlns:serif="http://www.serif.com/" style="fill-rule:evenodd;clip-rule:evenodd;stroke-linecap:round;stroke-linejoin:round;stroke-miterlimit:1.41421;"><g><rect x="374.188" y="64.316" width="30.836" height="30.836" style="fill:none;stroke:#000;stroke-width:3.75px;"/><path d="M312.516,95.152l-30.837,0l0,-30.836l30.837,30.836Z" style="fill:none;stroke:#000;stroke-width:3.75px;"/><rect x="250.843" y="64.316" width="30.836" height="61.672" style="fill:none;stroke:#000;stroke-width:3.75px;"/><path d="M312.516,33.479l0,61.673l30.836,30.836l0,-92.509l-30.836,0Z" style="fill:none;stroke:#000;stroke-width:3.75px;"/><rect x="343.352" y="2.643" width="30.836" height="92.509" style="fill:none;stroke:#000;stroke-width:3.75px;"/><rect x="0" y="81.826" width="9.121" height="45.969" style="fill-rule:nonzero;"/><path d="M32.031,94.741c9.558,0 14.812,6.275 15.542,14.009l-7.37,0.511c-0.657,-4.816 -3.356,-7.807 -8.172,-7.807c-4.817,0 -8.172,3.575 -8.172,10.288c0,6.64 3.355,10.215 8.172,10.215c4.816,0 7.515,-3.064 8.172,-7.953l7.37,0.657c-0.73,7.734 -5.984,14.009 -15.542,14.009c-9.924,0 -17.002,-6.713 -17.002,-16.928c0,-10.215 7.078,-17.001 17.002,-17.001Z" style="fill-rule:nonzero;"/><path d="M75.589,108.458c-0.291,-3.721 -2.553,-7.296 -7.442,-7.296c-4.815,0 -7.224,3.283 -8.026,7.296l15.468,0Zm8.319,8.83c-1.678,7.15 -7.224,11.382 -15.469,11.382c-9.924,0 -17.074,-6.348 -17.074,-16.49c0,-10.142 7.223,-17.439 16.855,-17.439c10.507,0 15.907,7.297 15.907,16.052l0,3.138l-24.153,0c0.293,4.743 4.014,8.099 8.757,8.099c4.305,0 6.858,-1.823 8.099,-5.472l7.078,0.73Z" style="fill-rule:nonzero;"/><rect x="89.744" y="81.826" width="8.756" height="45.969" style="fill-rule:nonzero;"/><path d="M125.205,113.056l-6.057,1.313c-3.794,0.802 -6.494,1.459 -6.494,4.67c0,2.189 1.679,3.502 4.451,3.502c4.598,0 8.1,-3.502 8.1,-8.683l0,-0.802Zm8.537,6.931c0,1.679 0.876,2.481 2.262,2.481c0.876,0 1.752,-0.219 2.7,-0.656l0,4.669c-1.386,1.095 -3.138,2.043 -6.056,2.043c-3.648,0 -5.984,-2.115 -6.787,-5.618c-1.824,3.721 -6.201,5.692 -10.944,5.692c-6.713,0 -10.8,-3.357 -10.8,-8.903c0,-6.129 4.962,-8.683 12.259,-10.142l8.829,-1.751l0,-0.73c0,-3.575 -1.896,-5.764 -5.618,-5.764c-3.649,0 -5.618,2.189 -6.349,5.326l-7.953,-0.729c1.095,-6.567 6.129,-11.164 14.666,-11.164c8.319,0 13.791,3.94 13.791,12.404l0,12.842Z" style="fill-rule:nonzero;"/><path d="M151.617,127.795l-8.756,0l0,-32.178l8.756,0l0,5.253c1.606,-3.648 5.692,-6.129 10.508,-6.129c8.609,0 11.747,5.838 11.747,12.988l0,20.066l-8.756,0l0,-18.315c0,-4.962 -1.97,-7.808 -6.275,-7.808c-4.451,0 -7.224,3.503 -7.224,8.903l0,17.22Z" style="fill-rule:nonzero;"/><path d="M204.662,111.085c0,-5.837 -3.575,-9.485 -8.537,-9.485c-5.473,0 -8.318,4.013 -8.318,10.142c0,6.056 2.845,10.07 8.318,10.07c4.962,0 8.537,-3.576 8.537,-9.486l0,-1.241Zm-0.072,10.581c-1.459,3.867 -5.401,7.004 -11.092,7.004c-9.559,0 -14.519,-7.442 -14.519,-16.928c0,-9.486 4.96,-17.001 14.519,-17.001c5.691,0 9.633,3.138 11.092,7.077l0,-19.992l8.756,0l0,45.969l-8.756,0l0,-6.129Z" style="fill-rule:nonzero;"/><path d="M9.121,157.288l0,38.38l24.297,0l0,7.589l-33.418,0l0,-45.969l9.121,0Z" style="fill-rule:nonzero;"/><path d="M47.864,171.079l0,32.178l-8.756,0l0,-32.178l8.756,0Zm-8.902,-13.791l8.975,0l0,8.537l-8.975,0l0,-8.537Z" style="fill-rule:nonzero;"/><path d="M77.707,183.921c-0.292,-3.721 -2.554,-7.297 -7.444,-7.297c-4.815,0 -7.222,3.284 -8.025,7.297l15.469,0Zm8.318,8.828c-1.679,7.152 -7.225,11.383 -15.469,11.383c-9.924,0 -17.075,-6.347 -17.075,-16.49c0,-10.142 7.224,-17.439 16.855,-17.439c10.508,0 15.908,7.297 15.908,16.052l0,3.139l-24.153,0c0.292,4.742 4.014,8.099 8.756,8.099c4.306,0 6.86,-1.825 8.1,-5.472l7.078,0.728Z" style="fill-rule:nonzero;"/><path d="M107.402,170.203c9.559,0 14.813,6.275 15.543,14.01l-7.37,0.511c-0.657,-4.816 -3.356,-7.808 -8.173,-7.808c-4.815,0 -8.172,3.576 -8.172,10.289c0,6.64 3.357,10.214 8.172,10.214c4.817,0 7.516,-3.064 8.173,-7.953l7.37,0.657c-0.73,7.735 -5.984,14.009 -15.543,14.009c-9.923,0 -17.001,-6.713 -17.001,-16.927c0,-10.216 7.078,-17.002 17.001,-17.002Z" style="fill-rule:nonzero;"/><path d="M137.244,203.257l-8.756,0l0,-45.969l8.756,0l0,19.044c1.606,-3.648 5.692,-6.129 10.508,-6.129c8.609,0 11.747,5.838 11.747,12.988l0,20.066l-8.756,0l0,-18.314c0,-4.963 -1.97,-7.808 -6.275,-7.808c-4.451,0 -7.224,3.502 -7.224,8.902l0,17.22Z" style="fill-rule:nonzero;"/><path d="M167.742,177.208l-4.596,0l0,-5.181l2.189,-0.364c3.138,-0.511 4.013,-2.117 4.743,-5.108l1.022,-4.378l5.326,0l0,8.902l8.756,0l0,6.129l-8.756,0l0,15.907c0,2.773 1.24,4.013 3.867,4.013c1.751,0 3.575,-0.657 5.473,-1.533l0,5.766c-2.335,1.75 -4.962,2.771 -8.903,2.771c-4.961,0 -9.121,-2.188 -9.121,-9.047l0,-17.877Z" style="fill-rule:nonzero;"/><path d="M213.053,183.921c-0.291,-3.721 -2.553,-7.297 -7.443,-7.297c-4.815,0 -7.223,3.284 -8.026,7.297l15.469,0Zm8.318,8.828c-1.678,7.152 -7.223,11.383 -15.469,11.383c-9.923,0 -17.074,-6.347 -17.074,-16.49c0,-10.142 7.224,-17.439 16.856,-17.439c10.507,0 15.907,7.297 15.907,16.052l0,3.139l-24.153,0c0.292,4.742 4.013,8.099 8.756,8.099c4.306,0 6.859,-1.825 8.1,-5.472l7.077,0.728Z" style="fill-rule:nonzero;"/><path d="M236.109,203.257l-8.755,0l0,-32.178l8.755,0l0,5.253c1.606,-3.648 5.692,-6.129 10.508,-6.129c8.61,0 11.747,5.838 11.747,12.988l0,20.066l-8.756,0l0,-18.314c0,-4.963 -1.969,-7.808 -6.275,-7.808c-4.45,0 -7.224,3.502 -7.224,8.902l0,17.22Z" style="fill-rule:nonzero;"/><path d="M270.768,192.312c0.51,3.867 3.429,5.838 7.879,5.838c3.211,0 5.838,-1.095 5.838,-3.43c0,-2.189 -1.46,-3.138 -4.67,-3.648l-5.108,-0.875c-6.858,-1.096 -10.652,-3.649 -10.652,-9.633c0,-6.129 5.179,-10.361 13.352,-10.361c8.903,0 14.229,4.013 14.813,11.164l-7.224,0.292c-0.584,-3.648 -3.064,-5.472 -7.662,-5.472c-3.137,0 -5.181,1.386 -5.181,3.575c0,1.751 1.168,2.773 3.503,3.137l6.129,1.022c6.786,1.094 10.799,3.94 10.799,9.996c0,6.567 -5.691,10.215 -14.01,10.215c-8.39,0 -14.811,-3.648 -15.395,-11.528l7.589,-0.292Z" style="fill-rule:nonzero;"/><path d="M299.296,177.208l-4.597,0l0,-5.181l2.189,-0.364c3.137,-0.511 4.013,-2.117 4.743,-5.108l1.021,-4.378l5.327,0l0,8.902l8.756,0l0,6.129l-8.756,0l0,15.907c0,2.773 1.241,4.013 3.867,4.013c1.752,0 3.576,-0.657 5.472,-1.533l0,5.766c-2.334,1.75 -4.961,2.771 -8.901,2.771c-4.962,0 -9.121,-2.188 -9.121,-9.047l0,-17.877Z" style="fill-rule:nonzero;"/><path d="M344.606,183.921c-0.292,-3.721 -2.553,-7.297 -7.442,-7.297c-4.816,0 -7.224,3.284 -8.026,7.297l15.468,0Zm8.319,8.828c-1.678,7.152 -7.224,11.383 -15.469,11.383c-9.924,0 -17.074,-6.347 -17.074,-16.49c0,-10.142 7.223,-17.439 16.855,-17.439c10.507,0 15.908,7.297 15.908,16.052l0,3.139l-24.153,0c0.291,4.742 4.013,8.099 8.756,8.099c4.305,0 6.858,-1.825 8.1,-5.472l7.077,0.728Z" style="fill-rule:nonzero;"/><path d="M367.663,171.079l0,32.178l-8.756,0l0,-32.178l8.756,0Zm-8.902,-13.791l8.975,0l0,8.537l-8.975,0l0,-8.537Z" style="fill-rule:nonzero;"/><path d="M383.934,203.257l-8.756,0l0,-32.178l8.756,0l0,5.253c1.605,-3.648 5.691,-6.129 10.507,-6.129c8.61,0 11.747,5.838 11.747,12.988l0,20.066l-8.755,0l0,-18.314c0,-4.963 -1.97,-7.808 -6.276,-7.808c-4.451,0 -7.223,3.502 -7.223,8.902l0,17.22Z" style="fill-rule:nonzero;"/><path d="M30.792,263.397l0,-30.647l8.463,0l0,45.97l-7.296,0l-23.496,-32.397l0,32.397l-8.463,0l0,-45.97l9.047,0l21.745,30.647Z" style="fill-rule:nonzero;"/><path d="M62.019,272.956c5.4,0 8.173,-4.232 8.173,-10.289c0,-6.128 -2.773,-10.361 -8.173,-10.361c-5.326,0 -8.1,4.233 -8.1,10.361c0,6.057 2.774,10.289 8.1,10.289Zm0,6.639c-9.924,0 -16.928,-6.931 -16.928,-16.928c0,-9.996 7.004,-17.001 16.928,-17.001c9.997,0 17.002,7.005 17.002,17.001c0,9.997 -7.005,16.928 -17.002,16.928Z" style="fill-rule:nonzero;"/><path d="M106.164,255.152c-1.679,-0.949 -3.139,-1.387 -5.254,-1.387c-4.525,0 -7.589,3.211 -7.589,9.049l0,15.906l-8.756,0l0,-32.179l8.756,0l0,6.13c1.167,-3.648 4.524,-7.005 8.975,-7.005c1.971,0 3.575,0.511 4.524,1.314l-0.656,8.172Z" style="fill-rule:nonzero;"/><path d="M142.645,267.994l0.293,0l6.639,-21.453l7.953,0l-10.216,32.179l-8.463,0l-5.837,-21.233l-0.292,0l-5.837,21.233l-8.538,0l-10.215,-32.179l8.682,0l6.713,21.453l0.292,0l5.838,-21.453l7.077,0l5.911,21.453Z" style="fill-rule:nonzero;"/><path d="M180.221,263.981l-6.056,1.313c-3.794,0.803 -6.494,1.459 -6.494,4.67c0,2.19 1.679,3.502 4.451,3.502c4.597,0 8.099,-3.502 8.099,-8.683l0,-0.802Zm8.538,6.932c0,1.678 0.875,2.481 2.262,2.481c0.875,0 1.75,-0.219 2.7,-0.657l0,4.67c-1.387,1.094 -3.138,2.043 -6.057,2.043c-3.648,0 -5.983,-2.117 -6.786,-5.618c-1.824,3.72 -6.202,5.691 -10.945,5.691c-6.713,0 -10.799,-3.357 -10.799,-8.902c0,-6.129 4.962,-8.684 12.259,-10.143l8.828,-1.75l0,-0.729c0,-3.578 -1.897,-5.766 -5.618,-5.766c-3.649,0 -5.619,2.188 -6.348,5.327l-7.954,-0.729c1.095,-6.568 6.13,-11.165 14.667,-11.165c8.318,0 13.791,3.94 13.791,12.404l0,12.843Z" style="fill-rule:nonzero;"/><path d="M201.234,290.687l4.961,-11.82l-13.352,-32.326l9.194,0l8.756,21.964l0.291,0l8.684,-21.964l8.537,0l-18.461,44.146l-8.61,0Z" style="fill-rule:nonzero;"/><path d="M253.913,249.242c-5.107,0 -8.173,2.845 -8.173,7.734c0,4.816 3.066,7.662 8.173,7.662c5.254,0 8.318,-2.846 8.318,-7.662c0,-4.889 -3.064,-7.734 -8.318,-7.734Zm-0.583,39.548c7.879,0 13.498,-1.898 13.498,-7.371c0,-3.355 -2.846,-4.595 -7.078,-4.595l-9.996,0c-3.867,0 -7.224,1.24 -7.224,5.326c0,4.67 4.451,6.64 10.8,6.64Zm0.583,-21.161c-2.627,0 -4.962,-0.438 -6.932,-1.386c-1.313,0.657 -2.627,1.969 -2.627,3.648c0,1.97 1.095,2.991 4.16,2.991l12.258,0c6.787,0 10.362,3.503 10.362,8.392c0,7.808 -8.537,10.726 -17.804,10.726c-8.392,0 -15.324,-2.918 -15.324,-8.756c0,-3.868 2.7,-6.275 6.713,-7.151c-2.918,-0.875 -4.086,-2.845 -4.086,-5.18c0,-2.701 1.897,-4.525 4.451,-5.837c-2.48,-1.825 -3.94,-4.67 -3.94,-8.172c0,-6.641 5.327,-10.727 12.769,-10.727c4.087,0 7.589,1.24 9.851,3.502c1.678,-2.554 4.451,-4.305 7.807,-4.305l0,4.305c-2.408,0 -4.962,0.656 -6.494,1.532c1.095,1.606 1.679,3.503 1.679,5.693c0,6.638 -5.401,10.725 -12.843,10.725Z" style="fill-rule:nonzero;"/><path d="M293.167,251.503c-1.824,-0.949 -2.919,-1.24 -4.815,-1.24c-4.598,0 -8.319,4.742 -8.319,11.091l0,17.366l-4.451,0l0,-31.668l4.451,0l0,6.641c1.24,-3.649 4.451,-7.516 9.121,-7.516c1.97,0 3.356,0.438 4.524,1.459l-0.511,3.867Z" style="fill-rule:nonzero;"/><path d="M317.829,262.375l-7.734,1.679c-5.765,1.24 -9.34,2.407 -9.34,6.64c0,2.991 1.97,5.472 6.129,5.472c6.202,0 10.945,-4.743 10.945,-11.821l0,-1.97Zm4.233,11.019c0,1.678 1.021,2.48 2.626,2.48c0.73,0 1.97,-0.292 2.845,-0.802l0,2.408c-0.948,1.094 -1.97,1.896 -4.158,1.896c-3.138,0 -5.4,-2.699 -5.546,-6.712c-1.679,3.721 -6.349,6.931 -11.748,6.931c-5.91,0 -9.851,-3.283 -9.851,-8.756c0,-5.982 5.254,-8.39 13.135,-9.995l8.464,-1.753l0,-1.604c0,-4.816 -2.846,-7.808 -7.808,-7.808c-5.107,0 -7.953,2.992 -9.047,7.078l-3.794,-0.73c1.24,-5.692 5.91,-9.85 12.769,-9.85c7.88,0 12.113,4.158 12.113,11.967l0,15.25Z" style="fill-rule:nonzero;"/><path d="M336.653,278.72l-4.451,0l0,-31.668l4.451,0l0,5.838c1.533,-3.867 5.91,-6.713 10.654,-6.713c8.172,0 11.601,5.326 11.601,12.914l0,19.629l-4.451,0l0,-19.773c0,-5.619 -2.919,-9.268 -8.318,-9.268c-5.035,0 -9.486,3.941 -9.486,10.07l0,18.971Z" style="fill-rule:nonzero;"/><path d="M368.026,250.335l-4.888,0l0,-2.188l1.897,-0.365c2.918,-0.583 3.502,-1.97 4.159,-5.034l0.949,-4.525l2.261,0l0,8.829l9.195,0l0,3.283l-9.195,0l0,21.454c0,2.845 1.168,4.232 4.086,4.232c2.19,0 4.379,-1.096 6.203,-2.189l0,3.137c-2.262,1.751 -4.524,2.626 -7.734,2.626c-4.232,0 -6.933,-2.115 -6.933,-7.88l0,-21.38Z" style="fill-rule:nonzero;"/><path d="M389.112,267.556c0.657,5.473 4.378,8.537 10.435,8.537c4.889,0 8.318,-1.824 8.318,-5.545c0,-3.503 -2.481,-4.597 -6.932,-5.4l-5.473,-0.948c-5.545,-0.949 -8.975,-3.503 -8.975,-8.611c0,-5.691 4.744,-9.412 11.675,-9.412c8.172,0 12.915,3.867 13.426,11.383l-3.43,0.291c-0.802,-5.691 -4.158,-8.172 -9.996,-8.172c-4.523,0 -7.515,2.043 -7.515,5.4c0,3.065 1.824,4.597 5.764,5.253l5.837,0.949c6.202,1.021 9.851,3.211 9.851,8.829c0,6.202 -5.546,9.485 -12.478,9.485c-7.661,0 -13.572,-3.794 -14.082,-11.601l3.575,-0.438Z" style="fill-rule:nonzero;"/></g></svg>