<?xml version="1.0" encoding="UTF-8" standalone="no"?><!DOCTYPE svg PUBLIC "-//W3C//DTD SVG 1.1//EN" "http://www.w3.org/Graphics/SVG/1.1/DTD/svg11.dtd"><svg width="100%" height="100%" viewBox="0 0 260 62" version="1.1" xmlns="http://www.w3.org/2000/svg" xmlns:xlink="http://www.w3.org/1999/xlink" xml:space="preserve" xmlns:serif="http://www.serif.com/" style="fill-rule:evenodd;clip-rule:evenodd;stroke-linejoin:round;stroke-miterlimit:1.41421;"><path d="M106.638,10.791l-5.671,0l0,-7.841l5.671,0l0,1.515l-3.663,0l0,1.354l3.396,0l0,1.518l-3.396,0l0,1.936l3.663,0l0,1.518Zm8.564,-2.838c0,0.968 -0.294,1.711 -0.884,2.227c-0.59,0.516 -1.461,0.776 -2.608,0.776c-1.151,0 -2.017,-0.26 -2.607,-0.776c-0.585,-0.516 -0.88,-1.256 -0.88,-2.222l0,-5.008l2.031,0l0,4.891c0,0.545 0.114,0.952 0.343,1.218c0.228,0.267 0.6,0.4 1.113,0.4c0.504,0 0.871,-0.131 1.109,-0.383c0.228,-0.257 0.347,-0.668 0.347,-1.235l0,-4.891l2.036,0l0,5.003Zm6.286,-2.6c0,-0.198 -0.038,-0.367 -0.12,-0.507c-0.08,-0.142 -0.223,-0.252 -0.417,-0.333c-0.134,-0.055 -0.295,-0.088 -0.477,-0.102c-0.186,-0.012 -0.395,-0.019 -0.637,-0.019l-0.733,0l0,2.112l0.619,0c0.323,0 0.595,-0.016 0.813,-0.047c0.219,-0.034 0.4,-0.105 0.547,-0.217c0.138,-0.109 0.243,-0.228 0.31,-0.362c0.061,-0.128 0.095,-0.306 0.095,-0.525m3.154,5.438l-2.469,0l-2.141,-2.876l-0.928,0l0,2.876l-2.013,0l0,-7.841l3.393,0c0.462,0 0.861,0.024 1.194,0.079c0.333,0.052 0.648,0.166 0.938,0.342c0.294,0.176 0.528,0.402 0.704,0.681c0.171,0.281 0.261,0.633 0.261,1.051c0,0.578 -0.137,1.052 -0.404,1.418c-0.271,0.364 -0.652,0.668 -1.151,0.911l2.616,3.359Zm8.513,-3.918c0,1.251 -0.363,2.243 -1.077,2.979c-0.717,0.734 -1.708,1.104 -2.968,1.104c-1.261,0 -2.25,-0.37 -2.969,-1.104c-0.714,-0.736 -1.07,-1.728 -1.07,-2.979c0,-1.261 0.356,-2.258 1.07,-2.988c0.719,-0.733 1.708,-1.099 2.969,-1.099c1.257,0 2.246,0.366 2.965,1.099c0.717,0.73 1.08,1.727 1.08,2.988m-2.679,1.986c0.194,-0.24 0.342,-0.523 0.433,-0.844c0.094,-0.326 0.142,-0.706 0.142,-1.147c0,-0.471 -0.052,-0.87 -0.162,-1.201c-0.109,-0.329 -0.252,-0.597 -0.428,-0.802c-0.18,-0.209 -0.386,-0.362 -0.618,-0.459c-0.233,-0.093 -0.476,-0.14 -0.728,-0.14c-0.257,0 -0.499,0.045 -0.728,0.135c-0.224,0.093 -0.434,0.243 -0.619,0.454c-0.181,0.198 -0.318,0.467 -0.433,0.814c-0.109,0.345 -0.167,0.747 -0.167,1.204c0,0.469 0.058,0.864 0.162,1.192c0.105,0.33 0.247,0.597 0.424,0.804c0.176,0.207 0.38,0.361 0.618,0.459c0.234,0.098 0.481,0.148 0.743,0.148c0.256,0 0.504,-0.05 0.742,-0.15c0.233,-0.102 0.437,-0.257 0.619,-0.467m0.499,-8.859l0,0.105l-1.856,1.965l-1.298,0l1.303,-2.07l1.851,0Zm10.196,5.424c0,0.352 -0.066,0.695 -0.185,1.028c-0.124,0.338 -0.3,0.621 -0.529,0.849c-0.308,0.307 -0.661,0.54 -1.047,0.698c-0.379,0.159 -0.86,0.237 -1.431,0.237l-1.261,0l0,2.555l-2.022,0l0,-7.841l3.331,0c0.499,0 0.918,0.043 1.26,0.126c0.343,0.088 0.647,0.216 0.909,0.39c0.314,0.207 0.556,0.469 0.723,0.793c0.166,0.325 0.252,0.713 0.252,1.165m-2.094,0.048c0,-0.222 -0.056,-0.412 -0.175,-0.571c-0.124,-0.159 -0.262,-0.271 -0.419,-0.333c-0.209,-0.086 -0.414,-0.133 -0.614,-0.141c-0.205,-0.007 -0.466,-0.014 -0.804,-0.014l-0.347,0l0,2.351l0.58,0c0.343,0 0.628,-0.022 0.852,-0.065c0.223,-0.042 0.409,-0.126 0.561,-0.254c0.129,-0.112 0.224,-0.245 0.281,-0.402c0.057,-0.157 0.085,-0.345 0.085,-0.571m9.802,2.855c0,0.77 -0.328,1.401 -0.985,1.881c-0.652,0.483 -1.541,0.724 -2.664,0.724c-0.652,0 -1.218,-0.055 -1.698,-0.169c-0.486,-0.115 -0.933,-0.26 -1.357,-0.436l0,-1.879l0.219,0c0.419,0.333 0.885,0.588 1.404,0.768c0.519,0.179 1.018,0.267 1.493,0.267c0.124,0 0.286,-0.007 0.486,-0.029c0.2,-0.021 0.362,-0.057 0.49,-0.107c0.152,-0.062 0.281,-0.142 0.381,-0.235c0.099,-0.095 0.152,-0.236 0.152,-0.422c0,-0.173 -0.076,-0.32 -0.219,-0.444c-0.147,-0.126 -0.362,-0.222 -0.642,-0.288c-0.295,-0.069 -0.605,-0.138 -0.933,-0.198c-0.328,-0.061 -0.638,-0.14 -0.923,-0.233c-0.661,-0.216 -1.137,-0.507 -1.427,-0.873c-0.29,-0.366 -0.433,-0.823 -0.433,-1.368c0,-0.73 0.328,-1.325 0.979,-1.787c0.658,-0.461 1.499,-0.691 2.528,-0.691c0.513,0 1.027,0.049 1.527,0.15c0.504,0.099 0.942,0.225 1.313,0.375l0,1.808l-0.219,0c-0.314,-0.254 -0.699,-0.464 -1.161,-0.635c-0.456,-0.169 -0.928,-0.257 -1.404,-0.257c-0.166,0 -0.337,0.014 -0.503,0.036c-0.167,0.021 -0.325,0.067 -0.481,0.128c-0.139,0.052 -0.253,0.133 -0.352,0.238c-0.1,0.107 -0.148,0.233 -0.148,0.369c0,0.205 0.081,0.366 0.238,0.476c0.157,0.111 0.456,0.212 0.895,0.304c0.29,0.059 0.565,0.116 0.827,0.171c0.267,0.057 0.552,0.136 0.856,0.234c0.6,0.197 1.047,0.463 1.333,0.801c0.286,0.338 0.428,0.781 0.428,1.321m8.702,2.464l-2.478,0l-2.341,-3.138l-0.477,0.574l0,2.564l-2.021,0l0,-7.841l2.021,0l0,3.547l2.803,-3.547l2.341,0l-3.064,3.628l3.216,4.213Zm8.245,0l-2.092,0l-0.543,-1.586l-2.907,0l-0.542,1.586l-2.037,0l2.898,-7.841l2.326,0l2.897,7.841Zm-3.125,-3.023l-0.961,-2.812l-0.966,2.812l1.927,0Zm14.806,0.185c0,0.968 -0.295,1.711 -0.885,2.227c-0.589,0.516 -1.461,0.776 -2.607,0.776c-1.147,0 -2.017,-0.26 -2.603,-0.776c-0.589,-0.516 -0.884,-1.256 -0.884,-2.222l0,-5.008l2.031,0l0,4.891c0,0.545 0.114,0.952 0.343,1.218c0.228,0.267 0.599,0.4 1.113,0.4c0.505,0 0.876,-0.131 1.109,-0.383c0.233,-0.257 0.352,-0.668 0.352,-1.235l0,-4.891l2.031,0l0,5.003Zm-1.95,-7.953l0,0.105l-1.856,1.965l-1.293,0l1.302,-2.07l1.847,0Zm10.972,10.791l-1.952,0l-3.325,-5.381l0,5.381l-1.855,0l0,-7.841l2.417,0l2.859,4.494l0,-4.494l1.856,0l0,7.841Zm6.237,0l-4.591,0l0,-1.389l1.284,0l0,-5.063l-1.284,0l0,-1.389l4.591,0l0,1.389l-1.284,0l0,5.063l1.284,0l0,1.389Zm8.897,0l-2.093,0l-0.542,-1.586l-2.908,0l-0.542,1.586l-2.037,0l2.899,-7.841l2.326,0l2.897,7.841Zm-3.126,-3.023l-0.965,-2.812l-0.961,2.812l1.926,0Zm-91.899,15.567l-5.671,0l0,-7.84l5.671,0l0,1.515l-3.663,0l0,1.353l3.396,0l0,1.518l-3.396,0l0,1.937l3.663,0l0,1.517Zm8.564,-2.837c0,0.968 -0.294,1.71 -0.884,2.224c-0.59,0.518 -1.461,0.777 -2.608,0.777c-1.151,0 -2.017,-0.259 -2.607,-0.777c-0.585,-0.514 -0.88,-1.254 -0.88,-2.22l0,-5.007l2.031,0l0,4.891c0,0.544 0.114,0.951 0.343,1.215c0.228,0.269 0.6,0.402 1.113,0.402c0.504,0 0.871,-0.13 1.109,-0.383c0.228,-0.257 0.347,-0.668 0.347,-1.234l0,-4.891l2.036,0l0,5.003Zm6.286,-2.603c0,-0.195 -0.038,-0.364 -0.12,-0.504c-0.08,-0.143 -0.223,-0.253 -0.417,-0.333c-0.134,-0.056 -0.295,-0.089 -0.477,-0.103c-0.186,-0.012 -0.395,-0.019 -0.637,-0.019l-0.733,0l0,2.112l0.619,0c0.323,0 0.595,-0.016 0.813,-0.047c0.219,-0.031 0.4,-0.105 0.547,-0.216c0.138,-0.108 0.243,-0.229 0.31,-0.362c0.061,-0.129 0.095,-0.307 0.095,-0.528m3.154,5.44l-2.469,0l-2.141,-2.876l-0.928,0l0,2.876l-2.013,0l0,-7.84l3.393,0c0.462,0 0.861,0.023 1.194,0.078c0.333,0.052 0.648,0.164 0.938,0.343c0.294,0.175 0.528,0.401 0.704,0.68c0.171,0.28 0.261,0.632 0.261,1.051c0,0.579 -0.137,1.052 -0.404,1.418c-0.271,0.364 -0.652,0.669 -1.151,0.912l2.616,3.358Zm8.513,-3.918c0,1.251 -0.363,2.244 -1.077,2.979c-0.717,0.735 -1.708,1.103 -2.968,1.103c-1.261,0 -2.25,-0.368 -2.969,-1.103c-0.714,-0.735 -1.07,-1.728 -1.07,-2.979c0,-1.261 0.356,-2.257 1.07,-2.988c0.719,-0.732 1.708,-1.099 2.969,-1.099c1.257,0 2.246,0.367 2.965,1.099c0.717,0.731 1.08,1.727 1.08,2.988m-2.679,1.987c0.194,-0.24 0.342,-0.524 0.433,-0.845c0.094,-0.326 0.142,-0.706 0.142,-1.149c0,-0.469 -0.052,-0.868 -0.162,-1.199c-0.109,-0.331 -0.252,-0.597 -0.428,-0.801c-0.18,-0.21 -0.386,-0.362 -0.618,-0.46c-0.233,-0.095 -0.476,-0.14 -0.728,-0.14c-0.257,0 -0.499,0.045 -0.728,0.136c-0.224,0.093 -0.434,0.242 -0.619,0.454c-0.181,0.197 -0.318,0.466 -0.433,0.813c-0.109,0.346 -0.167,0.747 -0.167,1.204c0,0.467 0.058,0.864 0.162,1.192c0.105,0.328 0.247,0.595 0.424,0.804c0.176,0.207 0.38,0.362 0.618,0.46c0.234,0.097 0.481,0.147 0.743,0.147c0.256,0 0.504,-0.05 0.742,-0.15c0.233,-0.102 0.437,-0.257 0.619,-0.466m0.499,-8.86l0,0.105l-1.856,1.965l-1.298,0l1.303,-2.07l1.851,0Zm10.196,5.425c0,0.352 -0.066,0.694 -0.185,1.027c-0.124,0.338 -0.3,0.619 -0.529,0.85c-0.308,0.306 -0.661,0.54 -1.047,0.696c-0.379,0.16 -0.86,0.238 -1.431,0.238l-1.261,0l0,2.555l-2.022,0l0,-7.84l3.331,0c0.499,0 0.918,0.042 1.26,0.126c0.343,0.087 0.647,0.216 0.909,0.39c0.314,0.207 0.556,0.468 0.723,0.792c0.166,0.326 0.252,0.714 0.252,1.166m-2.094,0.047c0,-0.221 -0.056,-0.412 -0.175,-0.571c-0.124,-0.159 -0.262,-0.271 -0.419,-0.335c-0.209,-0.084 -0.414,-0.131 -0.614,-0.138c-0.205,-0.01 -0.466,-0.014 -0.804,-0.014l-0.347,0l0,2.348l0.58,0c0.343,0 0.628,-0.019 0.852,-0.062c0.223,-0.043 0.409,-0.126 0.561,-0.255c0.129,-0.112 0.224,-0.245 0.281,-0.402c0.057,-0.157 0.085,-0.345 0.085,-0.571m9.802,2.855c0,0.771 -0.328,1.401 -0.985,1.881c-0.652,0.483 -1.541,0.724 -2.664,0.724c-0.652,0 -1.218,-0.055 -1.698,-0.169c-0.486,-0.114 -0.933,-0.259 -1.357,-0.435l0,-1.882l0.219,0c0.419,0.335 0.885,0.59 1.404,0.771c0.519,0.178 1.018,0.266 1.493,0.266c0.124,0 0.286,-0.007 0.486,-0.028c0.2,-0.022 0.362,-0.055 0.49,-0.107c0.152,-0.062 0.281,-0.143 0.381,-0.239c0.099,-0.092 0.152,-0.233 0.152,-0.418c0,-0.174 -0.076,-0.321 -0.219,-0.447c-0.147,-0.124 -0.362,-0.219 -0.642,-0.286c-0.295,-0.071 -0.605,-0.138 -0.933,-0.197c-0.328,-0.062 -0.638,-0.14 -0.923,-0.236c-0.661,-0.214 -1.137,-0.504 -1.427,-0.871c-0.29,-0.366 -0.433,-0.823 -0.433,-1.367c0,-0.731 0.328,-1.326 0.979,-1.787c0.658,-0.464 1.499,-0.692 2.528,-0.692c0.513,0 1.027,0.05 1.527,0.149c0.504,0.101 0.942,0.227 1.313,0.376l0,1.809l-0.219,0c-0.314,-0.253 -0.699,-0.464 -1.161,-0.636c-0.456,-0.169 -0.928,-0.257 -1.404,-0.257c-0.166,0 -0.337,0.012 -0.503,0.036c-0.167,0.022 -0.325,0.066 -0.481,0.129c-0.139,0.052 -0.253,0.133 -0.352,0.237c-0.1,0.107 -0.148,0.234 -0.148,0.369c0,0.205 0.081,0.364 0.238,0.476c0.157,0.112 0.456,0.211 0.895,0.304c0.29,0.057 0.565,0.117 0.827,0.172c0.267,0.057 0.552,0.135 0.856,0.231c0.6,0.199 1.047,0.466 1.333,0.803c0.286,0.338 0.428,0.779 0.428,1.321m8.702,2.464l-2.478,0l-2.341,-3.137l-0.477,0.573l0,2.564l-2.021,0l0,-7.84l2.021,0l0,3.546l2.803,-3.546l2.341,0l-3.064,3.628l3.216,4.212Zm7.899,-7.84l-2.894,4.805l0,3.035l-2.021,0l0,-2.938l-2.941,-4.902l2.298,0l1.695,3.032l1.636,-3.032l2.227,0Zm10.352,1.515l-3.61,0l0,1.458l3.345,0l0,1.518l-3.345,0l0,3.349l-2.009,0l0,-7.84l5.619,0l0,1.515Zm9.017,2.407c0,1.251 -0.357,2.244 -1.07,2.979c-0.719,0.735 -1.708,1.103 -2.974,1.103c-1.256,0 -2.246,-0.368 -2.965,-1.103c-0.718,-0.735 -1.075,-1.728 -1.075,-2.979c0,-1.261 0.357,-2.257 1.075,-2.988c0.719,-0.732 1.709,-1.099 2.965,-1.099c1.256,0 2.25,0.367 2.964,1.099c0.723,0.731 1.08,1.727 1.08,2.988m-2.679,1.987c0.196,-0.24 0.343,-0.524 0.438,-0.845c0.095,-0.326 0.143,-0.706 0.143,-1.149c0,-0.469 -0.052,-0.868 -0.167,-1.199c-0.104,-0.331 -0.252,-0.597 -0.424,-0.801c-0.18,-0.21 -0.384,-0.362 -0.618,-0.46c-0.233,-0.095 -0.475,-0.14 -0.727,-0.14c-0.258,0 -0.5,0.045 -0.729,0.136c-0.223,0.093 -0.432,0.242 -0.623,0.454c-0.176,0.197 -0.319,0.466 -0.429,0.813c-0.109,0.346 -0.166,0.747 -0.166,1.204c0,0.467 0.052,0.864 0.163,1.192c0.104,0.328 0.247,0.595 0.422,0.804c0.176,0.207 0.381,0.362 0.619,0.46c0.233,0.097 0.481,0.147 0.743,0.147c0.257,0 0.504,-0.05 0.742,-0.15c0.232,-0.102 0.437,-0.257 0.613,-0.466m11.358,1.931l-1.952,0l-3.325,-5.381l0,5.381l-1.855,0l0,-7.84l2.417,0l2.859,4.491l0,-4.491l1.856,0l0,7.84Zm9.411,-3.913c0,0.73 -0.172,1.385 -0.505,1.963c-0.333,0.578 -0.751,1.018 -1.261,1.327c-0.385,0.233 -0.804,0.395 -1.261,0.488c-0.456,0.088 -0.999,0.135 -1.622,0.135l-2.764,0l0,-7.84l2.845,0c0.638,0 1.19,0.052 1.656,0.159c0.462,0.107 0.851,0.259 1.166,0.454c0.542,0.331 0.966,0.778 1.275,1.337c0.314,0.559 0.471,1.218 0.471,1.977m-2.094,-0.017c0,-0.516 -0.095,-0.956 -0.28,-1.322c-0.191,-0.367 -0.486,-0.654 -0.895,-0.861c-0.205,-0.103 -0.419,-0.172 -0.633,-0.21c-0.218,-0.035 -0.543,-0.054 -0.975,-0.054l-0.509,0l0,4.91l0.509,0c0.48,0 0.833,-0.024 1.056,-0.067c0.228,-0.045 0.443,-0.126 0.657,-0.24c0.371,-0.212 0.642,-0.493 0.813,-0.847c0.171,-0.352 0.257,-0.785 0.257,-1.309m-95.481,11.034c0,-0.195 -0.043,-0.366 -0.124,-0.507c-0.081,-0.14 -0.219,-0.249 -0.414,-0.33c-0.138,-0.055 -0.3,-0.091 -0.481,-0.103c-0.181,-0.012 -0.395,-0.019 -0.638,-0.019l-0.732,0l0,2.113l0.623,0c0.323,0 0.595,-0.016 0.813,-0.048c0.214,-0.031 0.396,-0.105 0.547,-0.216c0.139,-0.107 0.243,-0.228 0.305,-0.362c0.066,-0.131 0.101,-0.307 0.101,-0.528m3.154,5.438l-2.475,0l-2.135,-2.874l-0.933,0l0,2.874l-2.008,0l0,-7.838l3.388,0c0.461,0 0.861,0.023 1.194,0.078c0.337,0.052 0.647,0.164 0.942,0.343c0.294,0.176 0.528,0.402 0.699,0.68c0.177,0.281 0.261,0.63 0.261,1.051c0,0.579 -0.132,1.052 -0.399,1.419c-0.271,0.363 -0.656,0.668 -1.156,0.908l2.622,3.359Zm6.557,0l-5.672,0l0,-7.838l5.672,0l0,1.515l-3.665,0l0,1.354l3.398,0l0,1.517l-3.398,0l0,1.94l3.665,0l0,1.512Zm8.63,-0.447c-0.352,0.138 -0.818,0.277 -1.394,0.409c-0.58,0.133 -1.156,0.204 -1.736,0.204c-1.333,0 -2.374,-0.366 -3.131,-1.088c-0.757,-0.724 -1.133,-1.728 -1.133,-3.005c0,-1.219 0.381,-2.201 1.142,-2.948c0.761,-0.745 1.823,-1.116 3.188,-1.116c0.514,0 1.009,0.046 1.475,0.136c0.466,0.095 0.985,0.281 1.555,0.557l0,1.838l-0.223,0c-0.1,-0.073 -0.243,-0.175 -0.433,-0.311c-0.19,-0.138 -0.376,-0.252 -0.547,-0.347c-0.205,-0.112 -0.442,-0.21 -0.714,-0.286c-0.271,-0.083 -0.561,-0.126 -0.866,-0.126c-0.361,0 -0.685,0.052 -0.976,0.159c-0.29,0.108 -0.551,0.269 -0.784,0.486c-0.223,0.212 -0.395,0.478 -0.523,0.804c-0.129,0.324 -0.191,0.697 -0.191,1.122c0,0.869 0.229,1.533 0.685,1.99c0.462,0.461 1.143,0.689 2.041,0.689c0.076,0 0.162,0 0.258,-0.005c0.09,-0.004 0.176,-0.009 0.252,-0.013l0,-1.538l-1.566,0l0,-1.479l3.621,0l0,3.868Zm6.052,0.447l-4.597,0l0,-1.389l1.286,0l0,-5.06l-1.286,0l0,-1.389l4.597,0l0,1.389l-1.285,0l0,5.06l1.285,0l0,1.389Zm9.274,-3.918c0,1.254 -0.363,2.244 -1.076,2.981c-0.713,0.732 -1.709,1.103 -2.969,1.103c-1.261,0 -2.25,-0.371 -2.969,-1.103c-0.714,-0.737 -1.075,-1.727 -1.075,-2.981c0,-1.258 0.361,-2.255 1.075,-2.985c0.719,-0.733 1.708,-1.1 2.969,-1.1c1.256,0 2.246,0.367 2.96,1.1c0.722,0.73 1.085,1.727 1.085,2.985m-2.684,1.987c0.199,-0.238 0.343,-0.522 0.437,-0.843c0.095,-0.328 0.143,-0.706 0.143,-1.148c0,-0.469 -0.052,-0.869 -0.161,-1.2c-0.11,-0.33 -0.253,-0.599 -0.429,-0.801c-0.18,-0.209 -0.386,-0.362 -0.618,-0.459c-0.233,-0.096 -0.477,-0.141 -0.728,-0.141c-0.257,0 -0.499,0.045 -0.728,0.136c-0.224,0.093 -0.434,0.242 -0.623,0.454c-0.177,0.198 -0.315,0.467 -0.429,0.814c-0.109,0.345 -0.166,0.747 -0.166,1.201c0,0.469 0.052,0.866 0.161,1.195c0.11,0.33 0.248,0.592 0.424,0.805c0.176,0.206 0.381,0.358 0.618,0.457c0.234,0.096 0.481,0.148 0.743,0.148c0.256,0 0.504,-0.052 0.742,-0.152c0.233,-0.1 0.438,-0.257 0.614,-0.466m11.357,1.931l-1.951,0l-3.326,-5.378l0,5.378l-1.855,0l0,-7.838l2.417,0l2.859,4.491l0,-4.491l1.856,0l0,7.838Zm9.245,0l-2.089,0l-0.542,-1.585l-2.908,0l-0.543,1.585l-2.036,0l2.898,-7.838l2.327,0l2.893,7.838Zm-3.122,-3.021l-0.965,-2.812l-0.961,2.812l1.926,0Zm0.842,-7.767l0,0.104l-1.855,1.966l-1.294,0l1.304,-2.07l1.845,0Zm9.065,10.788l-5.658,0l0,-7.838l2.027,0l0,6.326l3.631,0l0,1.512Zm8.344,0l-1.95,0l-3.326,-5.378l0,5.378l-1.851,0l0,-7.838l2.413,0l2.864,4.491l0,-4.491l1.85,0l0,7.838Zm7.675,0l-5.672,0l0,-7.838l5.672,0l0,1.515l-3.659,0l0,1.354l3.393,0l0,1.517l-3.393,0l0,1.94l3.659,0l0,1.512Zm8.727,0l-2.023,0l0,-3.452l-2.983,0l0,3.452l-2.023,0l0,-7.838l2.023,0l0,2.869l2.983,0l0,-2.869l2.023,0l0,7.838Zm9.625,-3.918c0,1.254 -0.358,2.244 -1.071,2.981c-0.718,0.732 -1.708,1.103 -2.974,1.103c-1.256,0 -2.245,-0.371 -2.964,-1.103c-0.718,-0.737 -1.075,-1.727 -1.075,-2.981c0,-1.258 0.357,-2.255 1.075,-2.985c0.719,-0.733 1.708,-1.1 2.964,-1.1c1.257,0 2.246,0.367 2.965,1.1c0.722,0.73 1.08,1.727 1.08,2.985m-2.679,1.987c0.195,-0.238 0.343,-0.522 0.438,-0.843c0.094,-0.328 0.142,-0.706 0.142,-1.148c0,-0.469 -0.056,-0.869 -0.166,-1.2c-0.104,-0.33 -0.253,-0.599 -0.424,-0.801c-0.18,-0.209 -0.389,-0.362 -0.618,-0.459c-0.233,-0.096 -0.48,-0.141 -0.733,-0.141c-0.257,0 -0.494,0.045 -0.723,0.136c-0.224,0.093 -0.433,0.242 -0.623,0.454c-0.177,0.198 -0.319,0.467 -0.429,0.814c-0.114,0.345 -0.166,0.747 -0.166,1.201c0,0.469 0.052,0.866 0.157,1.195c0.109,0.33 0.253,0.592 0.428,0.805c0.176,0.206 0.381,0.358 0.618,0.457c0.234,0.096 0.481,0.148 0.738,0.148c0.261,0 0.51,-0.052 0.747,-0.152c0.233,-0.1 0.438,-0.257 0.614,-0.466m12.309,-3.507c0,-0.195 -0.043,-0.366 -0.119,-0.507c-0.082,-0.14 -0.224,-0.249 -0.419,-0.33c-0.138,-0.055 -0.295,-0.091 -0.481,-0.103c-0.181,-0.012 -0.39,-0.019 -0.638,-0.019l-0.727,0l0,2.113l0.618,0c0.324,0 0.595,-0.016 0.815,-0.048c0.213,-0.031 0.399,-0.105 0.546,-0.216c0.138,-0.107 0.243,-0.228 0.305,-0.362c0.066,-0.131 0.1,-0.307 0.1,-0.528m3.154,5.438l-2.469,0l-2.141,-2.874l-0.928,0l0,2.874l-2.013,0l0,-7.838l3.393,0c0.462,0 0.856,0.023 1.194,0.078c0.333,0.052 0.647,0.164 0.938,0.343c0.295,0.176 0.527,0.402 0.704,0.68c0.171,0.281 0.257,0.63 0.257,1.051c0,0.579 -0.134,1.052 -0.4,1.419c-0.271,0.363 -0.652,0.668 -1.151,0.908l2.616,3.359Zm8.512,-3.918c0,1.254 -0.362,2.244 -1.075,2.981c-0.718,0.732 -1.709,1.103 -2.969,1.103c-1.261,0 -2.25,-0.371 -2.969,-1.103c-0.714,-0.737 -1.075,-1.727 -1.075,-2.981c0,-1.258 0.361,-2.255 1.075,-2.985c0.719,-0.733 1.708,-1.1 2.969,-1.1c1.251,0 2.246,0.367 2.964,1.1c0.718,0.73 1.08,1.727 1.08,2.985m-2.683,1.987c0.194,-0.238 0.342,-0.522 0.438,-0.843c0.094,-0.328 0.142,-0.706 0.142,-1.148c0,-0.469 -0.053,-0.869 -0.162,-1.2c-0.109,-0.33 -0.252,-0.599 -0.428,-0.801c-0.18,-0.209 -0.385,-0.362 -0.619,-0.459c-0.232,-0.096 -0.475,-0.141 -0.727,-0.141c-0.257,0 -0.5,0.045 -0.728,0.136c-0.224,0.093 -0.433,0.242 -0.624,0.454c-0.176,0.198 -0.318,0.467 -0.428,0.814c-0.109,0.345 -0.167,0.747 -0.167,1.201c0,0.469 0.053,0.866 0.162,1.195c0.105,0.33 0.248,0.592 0.424,0.805c0.176,0.206 0.38,0.358 0.618,0.457c0.234,0.096 0.481,0.148 0.743,0.148c0.256,0 0.504,-0.052 0.742,-0.152c0.233,-0.1 0.437,-0.257 0.614,-0.466m10.286,1.931l-6.59,0l0,-1.47l3.912,-4.853l-3.721,0l0,-1.515l6.19,0l0,1.496l-3.901,4.83l4.11,0l0,1.512Zm8.512,-7.838l-2.859,7.838l-2.265,0l-2.859,-7.838l2.122,0l1.893,5.507l1.899,-5.507l2.069,0Zm8.75,3.92c0,1.254 -0.357,2.244 -1.075,2.981c-0.714,0.732 -1.703,1.103 -2.969,1.103c-1.261,0 -2.246,-0.371 -2.965,-1.103c-0.718,-0.737 -1.075,-1.727 -1.075,-2.981c0,-1.258 0.357,-2.255 1.075,-2.985c0.719,-0.733 1.704,-1.1 2.965,-1.1c1.256,0 2.245,0.367 2.964,1.1c0.723,0.73 1.08,1.727 1.08,2.985m-2.679,1.987c0.196,-0.238 0.343,-0.522 0.438,-0.843c0.095,-0.328 0.142,-0.706 0.142,-1.148c0,-0.469 -0.056,-0.869 -0.166,-1.2c-0.104,-0.33 -0.252,-0.599 -0.424,-0.801c-0.18,-0.209 -0.389,-0.362 -0.618,-0.459c-0.233,-0.096 -0.48,-0.141 -0.732,-0.141c-0.257,0 -0.495,0.045 -0.724,0.136c-0.223,0.093 -0.432,0.242 -0.623,0.454c-0.176,0.198 -0.319,0.467 -0.429,0.814c-0.114,0.345 -0.166,0.747 -0.166,1.201c0,0.469 0.052,0.866 0.158,1.195c0.109,0.33 0.252,0.592 0.427,0.805c0.176,0.206 0.381,0.358 0.619,0.457c0.233,0.096 0.476,0.148 0.738,0.148c0.262,0 0.509,-0.052 0.747,-0.152c0.232,-0.1 0.437,-0.257 0.613,-0.466m8.313,-0.366c0,0.341 -0.063,0.666 -0.186,0.965c-0.124,0.3 -0.305,0.552 -0.548,0.761c-0.257,0.219 -0.565,0.391 -0.927,0.514c-0.362,0.119 -0.809,0.181 -1.342,0.181c-0.362,0 -0.704,-0.014 -1.023,-0.043c-0.319,-0.024 -0.599,-0.062 -0.842,-0.109l0,-1.59l0.19,0c0.167,0.063 0.343,0.119 0.523,0.177c0.186,0.052 0.419,0.08 0.705,0.08c0.367,0 0.652,-0.047 0.851,-0.147c0.195,-0.1 0.338,-0.238 0.419,-0.41c0.081,-0.175 0.129,-0.361 0.139,-0.568c0.008,-0.207 0.018,-0.469 0.018,-0.787l0,-3.124l-1.799,0l0,-1.441l3.822,0l0,5.541Zm9.144,2.297l-2.089,0l-0.542,-1.585l-2.907,0l-0.543,1.585l-2.041,0l2.898,-7.838l2.332,0l2.892,7.838Zm-3.121,-3.021l-0.966,-2.812l-0.961,2.812l1.927,0Zm-149.209,25.874c0,0.304 -0.071,0.603 -0.214,0.903c-0.142,0.3 -0.342,0.553 -0.594,0.762c-0.281,0.224 -0.61,0.399 -0.981,0.523c-0.376,0.128 -0.827,0.191 -1.35,0.191c-0.567,0 -1.076,-0.053 -1.528,-0.157c-0.452,-0.105 -0.909,-0.262 -1.375,-0.471l0,-1.304l0.071,0c0.4,0.333 0.857,0.585 1.375,0.766c0.519,0.176 1.009,0.266 1.465,0.266c0.648,0 1.148,-0.119 1.509,-0.361c0.357,-0.248 0.537,-0.566 0.537,-0.971c0,-0.347 -0.085,-0.604 -0.257,-0.771c-0.171,-0.161 -0.427,-0.29 -0.775,-0.385c-0.262,-0.066 -0.547,-0.124 -0.856,-0.172c-0.305,-0.047 -0.633,-0.104 -0.976,-0.171c-0.694,-0.147 -1.208,-0.399 -1.546,-0.756c-0.338,-0.357 -0.5,-0.824 -0.5,-1.394c0,-0.657 0.276,-1.194 0.828,-1.613c0.557,-0.419 1.261,-0.628 2.112,-0.628c0.553,0 1.057,0.053 1.519,0.157c0.461,0.105 0.865,0.233 1.223,0.385l0,1.232l-0.076,0c-0.295,-0.252 -0.691,-0.461 -1.176,-0.628c-0.486,-0.166 -0.985,-0.247 -1.494,-0.247c-0.557,0 -1.004,0.114 -1.341,0.348c-0.343,0.227 -0.515,0.527 -0.515,0.893c0,0.33 0.091,0.581 0.257,0.772c0.167,0.181 0.462,0.328 0.891,0.423c0.223,0.052 0.542,0.109 0.956,0.181c0.414,0.072 0.765,0.143 1.055,0.214c0.581,0.157 1.019,0.39 1.314,0.699c0.295,0.315 0.442,0.752 0.442,1.314m6.804,-3.235c0,0.351 -0.062,0.671 -0.181,0.97c-0.119,0.295 -0.29,0.552 -0.509,0.771c-0.271,0.266 -0.589,0.471 -0.956,0.604c-0.371,0.138 -0.838,0.204 -1.399,0.204l-1.037,0l0,2.922l-1.047,0l0,-7.842l2.127,0c0.471,0 0.871,0.043 1.194,0.12c0.328,0.081 0.618,0.205 0.871,0.371c0.299,0.205 0.528,0.452 0.695,0.747c0.162,0.3 0.242,0.68 0.242,1.133m-1.084,0.028c0,-0.272 -0.048,-0.505 -0.144,-0.704c-0.094,-0.2 -0.237,-0.366 -0.432,-0.49c-0.167,-0.11 -0.362,-0.191 -0.576,-0.234c-0.214,-0.052 -0.49,-0.071 -0.819,-0.071l-1.027,0l0,3.131l0.876,0c0.418,0 0.765,-0.038 1.027,-0.114c0.262,-0.077 0.476,-0.196 0.643,-0.362c0.161,-0.167 0.28,-0.343 0.346,-0.528c0.072,-0.186 0.106,-0.395 0.106,-0.628m8.307,-1.494c0.319,0.347 0.561,0.775 0.733,1.289c0.171,0.51 0.257,1.085 0.257,1.732c0,0.647 -0.086,1.223 -0.262,1.737c-0.177,0.508 -0.414,0.932 -0.728,1.275c-0.324,0.356 -0.705,0.623 -1.147,0.804c-0.442,0.176 -0.942,0.266 -1.508,0.266c-0.552,0 -1.052,-0.094 -1.504,-0.275c-0.452,-0.182 -0.833,-0.447 -1.151,-0.795c-0.314,-0.348 -0.557,-0.775 -0.728,-1.28c-0.171,-0.504 -0.257,-1.08 -0.257,-1.732c0,-0.637 0.086,-1.214 0.253,-1.722c0.166,-0.504 0.414,-0.938 0.737,-1.299c0.309,-0.348 0.694,-0.61 1.151,-0.795c0.457,-0.181 0.961,-0.271 1.499,-0.271c0.562,0 1.066,0.09 1.513,0.276c0.452,0.185 0.828,0.447 1.142,0.79m-0.095,3.021c0,-1.018 -0.229,-1.803 -0.686,-2.36c-0.457,-0.552 -1.08,-0.828 -1.87,-0.828c-0.794,0 -1.422,0.276 -1.879,0.828c-0.452,0.557 -0.68,1.342 -0.68,2.36c0,1.028 0.233,1.818 0.699,2.36c0.462,0.548 1.08,0.823 1.86,0.823c0.78,0 1.4,-0.275 1.861,-0.823c0.461,-0.542 0.695,-1.332 0.695,-2.36m7.698,3.916l-4.958,0l0,-7.842l1.042,0l0,6.918l3.916,0l0,0.924Zm6.785,-6.937c0.319,0.347 0.561,0.775 0.733,1.289c0.171,0.51 0.256,1.085 0.256,1.732c0,0.647 -0.085,1.223 -0.261,1.737c-0.176,0.508 -0.414,0.932 -0.728,1.275c-0.324,0.356 -0.705,0.623 -1.147,0.804c-0.443,0.176 -0.942,0.266 -1.508,0.266c-0.552,0 -1.052,-0.094 -1.504,-0.275c-0.452,-0.182 -0.832,-0.447 -1.151,-0.795c-0.314,-0.348 -0.557,-0.775 -0.728,-1.28c-0.172,-0.504 -0.257,-1.08 -0.257,-1.732c0,-0.637 0.085,-1.214 0.252,-1.722c0.166,-0.504 0.414,-0.938 0.738,-1.299c0.309,-0.348 0.694,-0.61 1.151,-0.795c0.462,-0.181 0.961,-0.271 1.499,-0.271c0.561,0 1.065,0.09 1.513,0.276c0.452,0.185 0.828,0.447 1.142,0.79m-0.095,3.021c0,-1.018 -0.229,-1.803 -0.686,-2.36c-0.456,-0.552 -1.079,-0.828 -1.869,-0.828c-0.795,0 -1.423,0.276 -1.88,0.828c-0.452,0.557 -0.68,1.342 -0.68,2.36c0,1.028 0.233,1.818 0.699,2.36c0.461,0.548 1.081,0.823 1.861,0.823c0.78,0 1.398,-0.275 1.86,-0.823c0.461,-0.542 0.695,-1.332 0.695,-2.36" style="fill-rule:nonzero;"/><path d="M143.827,60.4c-0.19,0.081 -0.366,0.161 -0.523,0.233c-0.153,0.076 -0.362,0.152 -0.615,0.233c-0.214,0.066 -0.442,0.124 -0.694,0.172c-0.252,0.047 -0.528,0.071 -0.833,0.071c-0.565,0 -1.084,-0.081 -1.551,-0.238c-0.462,-0.162 -0.866,-0.409 -1.213,-0.752c-0.338,-0.333 -0.599,-0.756 -0.79,-1.271c-0.185,-0.513 -0.285,-1.113 -0.285,-1.793c0,-0.647 0.095,-1.222 0.275,-1.732c0.181,-0.509 0.443,-0.942 0.791,-1.289c0.333,-0.343 0.732,-0.6 1.208,-0.78c0.471,-0.181 0.995,-0.267 1.575,-0.267c0.419,0 0.838,0.048 1.256,0.152c0.423,0.1 0.889,0.277 1.399,0.533l0,1.237l-0.076,0c-0.434,-0.362 -0.861,-0.623 -1.285,-0.785c-0.428,-0.166 -0.88,-0.252 -1.366,-0.252c-0.394,0 -0.756,0.066 -1.07,0.195c-0.319,0.129 -0.604,0.328 -0.847,0.595c-0.243,0.266 -0.433,0.599 -0.571,0.999c-0.134,0.404 -0.2,0.866 -0.2,1.394c0,0.552 0.071,1.023 0.224,1.422c0.147,0.396 0.337,0.719 0.576,0.966c0.247,0.262 0.532,0.457 0.861,0.576c0.328,0.129 0.675,0.191 1.037,0.191c0.504,0 0.976,-0.086 1.413,-0.262c0.438,-0.167 0.852,-0.429 1.233,-0.771l0.071,0l0,1.223Zm-1.019,-10.225l-1.199,1.998l-1.194,0l-1.203,-1.998l0.837,0l0.975,1.351l0.971,-1.351l0.813,0Zm8.479,10.791l-1.294,0l-3.716,-7.013l0,7.013l-0.975,0l0,-7.841l1.618,0l3.391,6.404l0,-6.404l0.976,0l0,7.841Zm7.251,0l-5.167,0l0,-7.841l5.167,0l0,0.927l-4.125,0l0,2.152l4.125,0l0,0.927l-4.125,0l0,2.912l4.125,0l0,0.923Zm11.357,-2.408c0,0.386 -0.076,0.734 -0.223,1.033c-0.148,0.295 -0.343,0.542 -0.595,0.733c-0.29,0.233 -0.618,0.399 -0.971,0.495c-0.351,0.1 -0.799,0.147 -1.346,0.147l-2.779,0l0,-7.841l2.323,0c0.57,0 1.003,0.024 1.284,0.067c0.285,0.042 0.556,0.128 0.818,0.261c0.285,0.152 0.495,0.347 0.623,0.581c0.134,0.238 0.195,0.523 0.195,0.851c0,0.371 -0.094,0.69 -0.28,0.952c-0.19,0.261 -0.442,0.471 -0.762,0.628l0,0.042c0.529,0.11 0.948,0.343 1.256,0.701c0.305,0.351 0.457,0.803 0.457,1.35m-1.756,-3.535c0,-0.19 -0.028,-0.352 -0.094,-0.48c-0.063,-0.128 -0.167,-0.238 -0.305,-0.314c-0.167,-0.096 -0.366,-0.152 -0.6,-0.181c-0.238,-0.019 -0.528,-0.034 -0.875,-0.034l-1.242,0l0,2.266l1.347,0c0.328,0 0.585,-0.015 0.78,-0.048c0.196,-0.033 0.371,-0.104 0.537,-0.21c0.167,-0.104 0.282,-0.242 0.348,-0.409c0.071,-0.166 0.104,-0.361 0.104,-0.59m0.667,3.578c0,-0.318 -0.043,-0.571 -0.138,-0.757c-0.095,-0.185 -0.267,-0.346 -0.519,-0.475c-0.167,-0.085 -0.371,-0.143 -0.614,-0.171c-0.237,-0.025 -0.532,-0.038 -0.875,-0.038l-1.637,0l0,2.916l1.38,0c0.457,0 0.828,-0.024 1.123,-0.072c0.29,-0.046 0.529,-0.132 0.714,-0.261c0.194,-0.133 0.342,-0.29 0.433,-0.466c0.09,-0.176 0.133,-0.399 0.133,-0.676m7.736,2.365l-5.167,0l0,-7.841l5.167,0l0,0.927l-4.125,0l0,2.152l4.125,0l0,0.927l-4.125,0l0,2.912l4.125,0l0,0.923Zm7.38,0l-6.119,0l0,-0.965l4.81,-5.949l-4.629,0l0,-0.927l5.823,0l0,0.947l-4.857,5.971l4.972,0l0,0.923Zm11.447,0l-1.042,0l0,-3.835l-3.911,0l0,3.835l-1.042,0l0,-7.841l1.042,0l0,3.079l3.911,0l0,-3.079l1.042,0l0,7.841Zm8.598,0l-1.356,0l-2.627,-3.117l-1.46,0l0,3.117l-1.047,0l0,-7.841l2.199,0c0.475,0 0.865,0.033 1.184,0.095c0.314,0.057 0.6,0.166 0.852,0.328c0.285,0.176 0.504,0.405 0.666,0.676c0.162,0.271 0.238,0.618 0.238,1.037c0,0.562 -0.143,1.037 -0.424,1.418c-0.285,0.381 -0.676,0.666 -1.175,0.862l2.95,3.425Zm-2.441,-5.633c0,-0.224 -0.038,-0.424 -0.114,-0.595c-0.081,-0.176 -0.214,-0.323 -0.395,-0.442c-0.152,-0.1 -0.334,-0.172 -0.538,-0.214c-0.204,-0.038 -0.452,-0.058 -0.732,-0.058l-1.223,0l0,2.96l1.051,0c0.328,0 0.614,-0.029 0.861,-0.086c0.247,-0.061 0.457,-0.167 0.628,-0.328c0.158,-0.148 0.277,-0.315 0.348,-0.505c0.081,-0.194 0.114,-0.437 0.114,-0.732m9.635,5.633l-1.108,0l-0.767,-2.184l-3.396,0l-0.772,2.184l-1.056,0l2.85,-7.841l1.394,0l2.855,7.841Zm-2.203,-3.079l-1.37,-3.848l-1.38,3.848l2.75,0Zm9.373,3.079l-1.289,0l-3.716,-7.013l0,7.013l-0.976,0l0,-7.841l1.618,0l3.392,6.404l0,-6.404l0.971,0l0,7.841Zm4.853,0l-3.097,0l0,-0.799l1.027,0l0,-6.238l-1.027,0l0,-0.804l3.097,0l0,0.804l-1.028,0l0,6.238l1.028,0l0,0.799Zm-0.004,-10.791l-1.438,1.97l-0.784,0l0.941,-1.97l1.281,0Zm7.831,10.225c-0.191,0.081 -0.367,0.161 -0.524,0.233c-0.156,0.076 -0.361,0.152 -0.613,0.233c-0.214,0.066 -0.447,0.124 -0.699,0.172c-0.253,0.047 -0.529,0.071 -0.828,0.071c-0.572,0 -1.085,-0.081 -1.551,-0.238c-0.467,-0.162 -0.871,-0.409 -1.214,-0.752c-0.338,-0.333 -0.6,-0.756 -0.789,-1.271c-0.191,-0.513 -0.286,-1.113 -0.286,-1.793c0,-0.647 0.091,-1.222 0.271,-1.732c0.186,-0.509 0.447,-0.942 0.795,-1.289c0.333,-0.343 0.733,-0.6 1.208,-0.78c0.471,-0.181 0.994,-0.267 1.57,-0.267c0.423,0 0.842,0.048 1.261,0.152c0.419,0.1 0.885,0.277 1.399,0.533l0,1.237l-0.077,0c-0.432,-0.362 -0.86,-0.623 -1.289,-0.785c-0.423,-0.166 -0.875,-0.252 -1.36,-0.252c-0.4,0 -0.757,0.066 -1.071,0.195c-0.319,0.129 -0.604,0.328 -0.852,0.595c-0.242,0.266 -0.428,0.599 -0.565,0.999c-0.134,0.404 -0.205,0.866 -0.205,1.394c0,0.552 0.076,1.023 0.223,1.422c0.153,0.396 0.343,0.719 0.576,0.966c0.248,0.262 0.533,0.457 0.866,0.576c0.324,0.129 0.671,0.191 1.037,0.191c0.505,0 0.971,-0.086 1.413,-0.262c0.438,-0.167 0.848,-0.429 1.227,-0.771l0.077,0" style="fill-rule:nonzero;"/><rect x="0" y="0.762" width="91.304" height="60.871" style="fill:#039;"/><path d="M45.652,7.532l0.756,2.31l2.436,0.009l-1.964,1.437l0.746,2.317l-1.974,-1.425l-1.975,1.425l0.747,-2.317l-1.965,-1.437l2.431,-0.009" style="fill:#fc0;"/><path d="M35.507,10.251l0.762,2.31l2.43,0.007l-1.964,1.439l0.747,2.315l-1.975,-1.422l-1.975,1.422l0.747,-2.315l-1.964,-1.439l2.431,-0.007" style="fill:#fc0;"/><path d="M28.081,17.676l0.761,2.31l2.431,0.01l-1.96,1.436l0.743,2.315l-1.975,-1.423l-1.97,1.423l0.742,-2.315l-1.96,-1.436l2.431,-0.01" style="fill:#fc0;"/><path d="M25.364,27.82l0.761,2.31l2.431,0.009l-1.964,1.438l0.747,2.316l-1.975,-1.425l-1.975,1.425l0.747,-2.316l-1.964,-1.438l2.43,-0.009" style="fill:#fc0;"/><path d="M28.081,37.961l0.761,2.313l2.431,0.008l-1.96,1.438l0.743,2.317l-1.975,-1.428l-1.97,1.428l0.742,-2.317l-1.96,-1.438l2.431,-0.008" style="fill:#fc0;"/><path d="M35.507,45.388l0.762,2.313l2.43,0.009l-1.964,1.432l0.747,2.317l-1.975,-1.423l-1.975,1.423l0.747,-2.317l-1.964,-1.432l2.431,-0.009" style="fill:#fc0;"/><path d="M45.652,48.105l0.756,2.313l2.436,0.009l-1.964,1.437l0.746,2.312l-1.974,-1.423l-1.975,1.423l0.747,-2.312l-1.965,-1.437l2.431,-0.009" style="fill:#fc0;"/><path d="M55.795,45.388l0.757,2.313l2.435,0.009l-1.964,1.432l0.747,2.317l-1.975,-1.423l-1.975,1.423l0.747,-2.317l-1.964,-1.432l2.43,-0.009" style="fill:#fc0;"/><path d="M63.222,37.961l0.757,2.313l2.431,0.008l-1.96,1.438l0.742,2.317l-1.97,-1.428l-1.975,1.428l0.743,-2.317l-1.96,-1.438l2.431,-0.008" style="fill:#fc0;"/><path d="M65.939,27.82l0.757,2.31l2.435,0.009l-1.964,1.438l0.742,2.316l-1.97,-1.425l-1.975,1.425l0.743,-2.316l-1.96,-1.438l2.431,-0.009" style="fill:#fc0;"/><path d="M63.222,17.676l0.757,2.31l2.431,0.01l-1.96,1.436l0.742,2.315l-1.97,-1.423l-1.975,1.423l0.743,-2.315l-1.96,-1.436l2.431,-0.01" style="fill:#fc0;"/><path d="M55.795,10.251l0.757,2.31l2.435,0.007l-1.964,1.439l0.747,2.315l-1.975,-1.422l-1.975,1.422l0.747,-2.315l-1.964,-1.439l2.43,-0.007" style="fill:#fc0;"/></svg>